<svg width="33" height="32" viewBox="0 0 33 32" fill="none" xmlns="http://www.w3.org/2000/svg">
<path fill-rule="evenodd" clip-rule="evenodd" d="M14.3404 10.4323C22.2445 7.83795 25.0506 19.6388 18.0415 22.0272C10.1638 24.7118 6.92914 12.8666 14.3404 10.4323V10.4323ZM21.9371 23.4015L22.6796 24.4919C23.9809 30.6135 34.9729 26.4003 32.6877 13.3154C29.7761 -3.3533 5.92949 -4.01132 0.866138 11.1756C-3.50496 24.2893 9.54488 34.2638 20.6284 31.1501C21.5967 30.8777 22.3071 30.7086 22.6574 29.8225C24.2932 25.6841 17.8346 28.2612 15.2749 28.0725C7.89995 27.5285 1.8081 20.8474 4.4329 12.5171C6.56159 5.76216 14.4352 1.39149 22.5956 5.34454C32.0448 9.92196 29.8033 22.8034 26.0082 23.3777C23.8029 19.5781 28.4418 4.00142 22.3088 9.21143C19.7878 7.33336 16.4691 5.85241 12.398 7.57786C9.49544 8.80857 6.91349 11.5916 6.68026 15.5643C6.19156 23.8995 15.6425 27.974 21.9371 23.4015V23.4015Z" fill="white"/>
</svg>
