<svg width="32" height="32" viewBox="0 0 32 32" fill="none" xmlns="http://www.w3.org/2000/svg">
<path d="M14.8898 0.035928C11.5102 0.280826 8.36571 1.54776 5.74694 3.71919C5.25714 4.12083 4.11102 5.27021 3.71592 5.74695C0.839181 9.2343 -0.431023 13.5935 0.13061 18.0408C0.519181 21.0906 1.76653 23.9216 3.80081 26.351C4.12081 26.7331 5.00898 27.6343 5.42041 27.9967C9.75673 31.8041 15.7322 32.9959 21.1755 31.138C24.098 30.1421 26.7265 28.2678 28.6237 25.8253C30.3869 23.5559 31.5135 20.8588 31.8661 18.0408C32.4473 13.4302 31.0596 8.90776 27.9967 5.42042C27.631 5.00246 26.7363 4.12083 26.3347 3.7845C23.8433 1.68817 20.898 0.434295 17.6326 0.0816423C17.0645 0.0196015 15.4645 -0.00652098 14.8898 0.035928ZM16.9404 4.94368C18.1094 5.15919 19.1249 5.68164 19.9412 6.49797C20.738 7.28817 21.2702 8.2743 21.5053 9.3845C21.6196 9.92654 21.649 10.7592 21.5706 11.298C21.391 12.5257 20.862 13.5837 19.9837 14.4653C19.249 15.2 18.3739 15.7061 17.4008 15.951C14.2824 16.7412 11.2065 14.8376 10.4914 11.6735C10.3739 11.1412 10.351 10.2041 10.4457 9.63266C10.8604 7.09879 12.8294 5.21144 15.3796 4.89797C15.7159 4.85879 16.6106 4.88491 16.9404 4.94368ZM11.151 16.1665C11.262 16.1992 11.4743 16.3037 11.6245 16.3984C11.778 16.4898 12.0359 16.6465 12.1959 16.7478C12.96 17.2147 14.0408 17.5837 15.0367 17.7143C15.4971 17.7763 16.4702 17.7861 16.898 17.7306C18.0963 17.5837 19.1543 17.1951 20.1731 16.5257C20.6106 16.2416 20.8163 16.1502 21.1363 16.098C21.7078 16.0065 22.2433 16.3135 22.5143 16.8882C22.8212 17.5314 22.7298 17.9559 22.1682 18.5012C21.0841 19.5527 19.6408 20.1861 17.6653 20.4735C17.4041 20.5127 17.1788 20.5486 17.1592 20.5518C17.1429 20.5584 18.0963 21.538 19.2849 22.7298C21.2931 24.7478 21.4498 24.9143 21.5543 25.1265C21.6588 25.3388 21.6653 25.3747 21.6653 25.6816C21.6653 25.9853 21.6555 26.0245 21.5543 26.2367C21.2669 26.8245 20.5943 27.2033 20.0229 27.0988C19.6016 27.0204 19.6082 27.0269 17.822 25.2376C16.9143 24.3265 16.1371 23.5723 16.098 23.5592C16.0588 23.5461 15.9902 23.5461 15.9478 23.5559C15.8988 23.569 15.1902 24.258 14.2106 25.2376C12.6792 26.7755 12.5388 26.9094 12.3363 27.0008C12.2122 27.0596 12.0359 27.1118 11.9249 27.1216C11.1575 27.2033 10.3543 26.4555 10.351 25.6621C10.351 25.4759 10.4294 25.2049 10.5371 25.0123C10.5894 24.9241 11.4612 24.0229 12.7641 22.7135C13.9429 21.5314 14.8931 20.5584 14.8735 20.5518C14.8571 20.5453 14.6645 20.5192 14.449 20.4898C12.6433 20.2547 11.3175 19.7225 10.0996 18.7494C9.32898 18.1323 9.14612 17.5837 9.48571 16.8947C9.8253 16.2025 10.4229 15.9445 11.151 16.1665Z" fill="white"/>
<path d="M15.5918 7.7747C15.0596 7.8498 14.5241 8.11103 14.1159 8.4996C13.7012 8.89143 13.4465 9.33878 13.3192 9.88409C13.2604 10.1453 13.2506 10.2531 13.2669 10.622C13.2865 11.1118 13.3388 11.3306 13.5184 11.7094C13.7828 12.2612 14.2139 12.689 14.7788 12.9665C15.2359 13.1918 15.6179 13.2702 16.1306 13.2474C16.5845 13.2245 16.8882 13.1461 17.2735 12.9469C17.9265 12.6074 18.3739 12.0784 18.6155 11.3633C18.7494 10.9616 18.782 10.3902 18.6939 9.95592C18.4065 8.51919 17.0514 7.56898 15.5918 7.7747Z" fill="white"/>
</svg>
