<svg width="263" height="259" viewBox="0 0 263 259" fill="none" xmlns="http://www.w3.org/2000/svg">
<g clip-path="url(#clip0_117_213)">
<path d="M131.492 187.439C163.533 187.439 189.507 161.503 189.507 129.508C189.507 97.5142 163.533 71.5776 131.492 71.5776C99.4505 71.5776 73.4761 97.5142 73.4761 129.508C73.4761 161.503 99.4505 187.439 131.492 187.439Z" fill="#F7CC34"/>
<path d="M145.603 16.5809C145.603 38.757 131.492 56.6173 131.492 56.6173C131.492 56.6173 117.398 38.6888 117.398 16.5809C117.398 -5.52697 145.603 -5.52697 145.603 16.5809Z" fill="#F7CC34"/>
<path d="M218.053 50.0156C205.292 68.0977 183.425 74.6141 183.425 74.6141C183.425 74.6141 182.246 51.858 195.008 33.793C207.769 15.728 230.832 31.9506 218.053 50.0156Z" fill="#F7CC34"/>
<path d="M246.395 137.509C224.186 137.509 206.3 123.436 206.3 123.436C206.3 123.436 224.238 109.345 246.395 109.345C268.552 109.345 268.535 137.509 246.395 137.509Z" fill="#F7CC34"/>
<path d="M117.09 242.419C117.09 220.243 131.201 202.383 131.201 202.383C131.201 202.383 145.312 220.311 145.312 242.419C145.312 264.527 117.09 264.527 117.09 242.419Z" fill="#F7CC34"/>
<path d="M16.6051 109.345C38.8136 109.345 56.7 123.436 56.7 123.436C56.7 123.436 38.7453 137.509 16.6051 137.509C-5.53504 137.509 -5.53504 109.345 16.6051 109.345Z" fill="#F7CC34"/>
<path d="M44.0413 46.9792C56.8026 65.0442 78.6865 71.6459 78.6865 71.6459C78.6865 71.6459 79.8653 48.8045 67.0869 30.7053C54.3084 12.6062 31.2799 28.9995 44.0413 46.9792Z" fill="#F7CC34"/>
<path d="M41.2395 202.621C54.0009 184.556 75.8677 178.023 75.8677 178.023C75.8677 178.023 77.0465 200.796 64.2851 218.861C51.5238 236.926 28.4782 220.703 41.2395 202.621Z" fill="#F7CC34"/>
<path d="M221.76 204.566C208.999 186.501 187.115 179.968 187.115 179.968C187.115 179.968 185.954 202.741 198.715 220.806C211.476 238.871 234.522 222.631 221.76 204.566Z" fill="#F7CC34"/>
<path d="M105.303 129.833C108.029 129.833 110.24 125.999 110.24 121.269C110.24 116.54 108.029 112.706 105.303 112.706C102.576 112.706 100.365 116.54 100.365 121.269C100.365 125.999 102.576 129.833 105.303 129.833Z" fill="#1D1D1B"/>
<path d="M157.099 129.833C159.826 129.833 162.037 125.999 162.037 121.269C162.037 116.54 159.826 112.706 157.099 112.706C154.373 112.706 152.162 116.54 152.162 121.269C152.162 125.999 154.373 129.833 157.099 129.833Z" fill="#1D1D1B"/>
<path d="M131.543 165.724C143.501 165.724 153.256 158.372 153.256 149.296H109.778C109.778 158.372 119.584 165.724 131.543 165.724Z" fill="white"/>
</g>
<defs>
<clipPath id="clip0_117_213">
<rect width="263" height="259" fill="white"/>
</clipPath>
</defs>
</svg>
