<svg width="277" height="273" viewBox="0 0 277 273" fill="none" xmlns="http://www.w3.org/2000/svg">
<g clip-path="url(#clip0_117_117)">
<path d="M69.2231 44.607C65.5627 59.2829 55.2277 57.6672 40.5461 54.0319C33.4937 52.2697 27.4298 47.7765 23.6884 41.541C19.9471 35.3054 18.8347 27.8382 20.596 20.7821C22.3573 13.7259 26.8481 7.65884 33.0803 3.91548C39.3126 0.172133 46.7758 -0.940837 53.8282 0.821415C59.8839 2.34287 72.1567 9.18268 75.4941 15.2012C83.9182 30.4157 71.3224 36.0034 69.2231 44.607Z" fill="#3C250D"/>
<path d="M53.9136 61.465L39.5767 57.8885L32.7563 85.2582L47.0932 88.8347L53.9136 61.465Z" fill="#A0673C"/>
<path d="M68.3214 52.6719C66.5114 57.7783 63.4862 62.367 59.5071 66.0419C54.1915 70.6466 47.2342 72.4643 43.7758 71.6026C40.3173 70.7409 34.6923 65.3687 32.1489 58.7847C30.4163 53.8329 30.0035 48.5148 30.9512 43.3547C34.1944 30.3214 45.1888 21.812 55.4969 24.424C65.805 27.0361 71.5646 39.6386 68.3214 52.6719Z" fill="#C97F4B"/>
<path d="M32.9811 44.6693C33.1599 41.1864 31.8728 38.2893 30.1062 38.1985C28.3397 38.1078 26.7627 40.8577 26.584 44.3406C26.4052 47.8235 27.6923 50.7206 29.4588 50.8113C31.2253 50.9021 32.8023 48.1522 32.9811 44.6693Z" fill="#C97F4B"/>
<path d="M45.6303 44.6412C46.069 42.8807 45.6063 41.2494 44.5967 40.9975C43.5871 40.7457 42.413 41.9687 41.9743 43.7292C41.5356 45.4897 41.9984 47.121 43.008 47.3729C44.0175 47.6247 45.1916 46.4017 45.6303 44.6412Z" fill="#1D1D1B"/>
<path d="M64.8785 49.4592C65.3172 47.6987 64.8544 46.0674 63.8448 45.8155C62.8352 45.5637 61.6612 46.7867 61.2225 48.5472C60.7837 50.3077 61.2465 51.939 62.2561 52.1909C63.2657 52.4427 64.4398 51.2197 64.8785 49.4592Z" fill="#1D1D1B"/>
<path d="M48.7818 64.8302C53.734 66.0689 58.5248 64.0223 59.4533 60.2658L41.4881 55.7822C40.5461 59.5387 43.8162 63.5915 48.7818 64.8302Z" fill="white"/>
<path d="M17.8171 256.681H4.1178V264.935H17.8171V256.681Z" fill="#A0673C"/>
<path d="M43.2509 249.424H29.5516V257.678H43.2509V249.424Z" fill="#A0673C"/>
<path d="M47.0728 172.974H0L3.28352 146.154L47.0728 150.112V172.974Z" fill="#1B3257"/>
<path d="M19.3243 258.688H2.6645L2.13967 214.996L0 172.975L24.613 168.854L21.2083 214.39L19.3243 258.688Z" fill="#1B3257"/>
<path d="M28.1521 249.922H44.812L45.3368 206.218L47.0728 159.901L22.8635 160.089L26.2682 205.625L28.1521 249.922Z" fill="#1B3257"/>
<path d="M50.908 73.528C50.437 75.8035 44.7581 87.1538 40.7614 86.3459C36.7646 85.5381 35.9707 72.8817 36.4282 70.5793L27.56 68.7751C26.4669 68.5642 25.3429 68.5712 24.2524 68.7955C23.162 69.0199 22.1265 69.4572 21.2052 70.0826C20.2839 70.7079 19.495 71.509 18.8836 72.4398C18.2722 73.3706 17.8503 74.413 17.6421 75.5072L13.605 117.637C13.2953 120.831 12.5154 123.961 11.2904 126.927L3.21619 146.208C4.44635 147.622 5.94716 148.776 7.6301 149.601C12.0036 152.294 21.0872 153.64 25.9855 154.771C30.8301 155.592 35.9707 157.195 41.0305 157.195C44.6708 157.235 48.3042 156.869 51.8634 156.104L52.4825 135.356C52.5518 132.481 53.0044 129.628 53.8282 126.873L66.3298 85.3496C66.7751 83.161 66.3354 80.8851 65.1071 79.0202C63.8788 77.1552 61.9619 75.8533 59.7762 75.3995L50.908 73.528Z" fill="#BFD67F"/>
<path d="M23.0654 126.752L44.8927 119.751L46.4403 110.985L27.9637 117.718C27.6915 117.821 27.4002 117.864 27.1097 117.845C26.8192 117.825 26.5364 117.742 26.2807 117.603C26.025 117.464 25.8025 117.27 25.6285 117.037C25.4544 116.803 25.3329 116.535 25.2723 116.25C25.1336 115.205 25.1201 114.147 25.2319 113.099V87.5173H17.7229V112.965C17.7078 116.642 18.16 120.307 19.0686 123.871V123.871C19.4589 125.217 21.8004 127.277 23.0654 126.752Z" fill="#C97F4B"/>
<path d="M73.7716 130.805L94.1994 120.262V111.362L77.1089 121.178C76.8583 121.315 76.5817 121.397 76.2971 121.42C76.0125 121.443 75.7263 121.405 75.4571 121.31C75.1879 121.215 74.9419 121.064 74.7349 120.867C74.528 120.67 74.3648 120.432 74.256 120.168C73.9335 119.154 73.7303 118.105 73.6504 117.044L69.3846 91.7854L61.9697 93.0376L66.2222 118.121C66.831 121.751 67.8982 125.289 69.398 128.65V128.65C69.9767 129.916 72.6681 131.532 73.7716 130.805Z" fill="#C97F4B"/>
<path d="M59.7359 101.291H73.3679L70.5957 83.3569C69.6806 79.5196 63.5577 75.615 56.9233 74.8879L59.7359 79.0753V101.291Z" fill="#BFD67F"/>
<path d="M26.0663 94.9899H10.2004L13.457 77.0556C14.5202 73.2183 18.6515 69.3137 26.3758 68.6001L26.0932 72.774L26.0663 94.9899Z" fill="#BFD67F"/>
<path d="M56.9233 111.282C60.8475 111.282 64.0286 107.84 64.0286 103.594C64.0286 99.3476 60.8475 95.9055 56.9233 95.9055C52.9992 95.9055 49.818 99.3476 49.818 103.594C49.818 107.84 52.9992 111.282 56.9233 111.282Z" fill="#BFD67F"/>
<path d="M96.043 125.096L94.8992 97.1039L106.338 99.0427L96.043 125.096Z" fill="#FFDF8B"/>
<path d="M102.435 116.346C103.196 112.889 101.525 109.582 98.7013 108.96C95.878 108.337 92.9719 110.634 92.2104 114.091C91.449 117.547 93.1204 120.854 95.9438 121.477C98.7671 122.1 101.673 119.802 102.435 116.346Z" fill="#C97F4B"/>
<path d="M43.0626 179.208L57.2598 178.401C61.5122 178.401 69.9767 172.826 69.5057 168.612L70.7303 153.599L59.8436 127.412C59.4129 123.655 56.3582 112.359 52.5767 112.359H46.0501C42.3359 112.359 39.5234 125.527 39.2273 129.216L30.4803 149.453L30.0631 168.774C29.7267 172.974 39.0255 179.208 43.0626 179.208Z" fill="#E9E9E9"/>
<path d="M55.0125 115.967H47.0997C47.0997 115.967 47.3285 122.941 48.2301 124.746C49.1317 126.55 49.9392 127.196 50.8004 127.439C51.154 127.594 51.5468 127.635 51.9251 127.558C52.3034 127.481 52.6485 127.289 52.9132 127.008C53.6293 126.079 54.1427 125.01 54.4204 123.871C54.4204 123.049 54.5953 122.363 54.6357 120.868C54.6761 119.373 55.0125 115.967 55.0125 115.967Z" fill="#979696"/>
<path d="M52.4826 117.664C52.478 118.433 52.4331 119.201 52.348 119.966C52.2811 121.231 51.9799 122.473 51.4598 123.628C51.2402 123.838 50.9764 123.997 50.6878 124.093C50.3991 124.188 50.0928 124.218 49.7911 124.18C49.1446 123.999 48.5619 123.64 48.109 123.143C47.7935 122.434 47.5501 121.694 47.3823 120.935L47.1939 118.848L47.0997 116.734V115.967L52.4826 117.664Z" fill="#BFD67F"/>
<path d="M47.5173 122.202C51.4263 121.956 54.4329 119.176 54.2327 115.992C54.0325 112.808 50.7014 110.427 46.7924 110.673C42.8834 110.919 39.8768 113.699 40.077 116.883C40.2772 120.067 43.6083 122.448 47.5173 122.202Z" fill="#C97F4B"/>
<path d="M108.154 95.9055C108.154 99.8639 105.073 99.7697 101.116 99.7697C97.1599 99.7697 93.9572 98.6521 93.9572 94.6937C93.9572 90.7352 97.7251 89.7523 100.686 85.2687C103.646 80.7852 103.094 82.2931 105.315 86.7498C106.58 89.3349 108.154 93.8454 108.154 95.9055Z" fill="#F2959E"/>
<path d="M94.926 97.7635L96.191 98.8003L97.8866 99.4331L96.4063 109.073L95.4105 109.504L94.926 97.7635Z" fill="#E0C57C"/>
<path d="M95.895 90.5063C95.9077 90.9713 96.013 91.429 96.2045 91.8528C96.7063 92.7053 97.4714 93.3715 98.3845 93.7512C99.072 94.0795 99.8083 94.2932 100.565 94.384C100.901 94.384 98.7479 95.5958 97.8732 95.4208C97.0295 95.259 96.2523 94.8515 95.6393 94.2494C95.1818 93.7378 94.4416 92.2971 94.8319 91.772C95.2221 91.2469 95.895 90.5063 95.895 90.5063Z" fill="#F7B9B1"/>
<path d="M98.8286 87.5173C98.8438 87.9834 98.9537 88.4415 99.1516 88.8638C99.6484 89.7153 100.409 90.3817 101.318 90.7622C102.006 91.0905 102.742 91.3042 103.498 91.395C103.848 91.395 101.695 92.5933 100.807 92.4183C99.967 92.2918 99.1843 91.9167 98.5595 91.3412C98.1019 90.8161 97.3753 89.3889 97.7521 88.8638C98.1289 88.3386 98.8286 87.5173 98.8286 87.5173Z" fill="#F7B9B1"/>
<path d="M43.3317 174.833L49.8583 168.478L61.391 171.655L60.5298 176.556L43.3317 174.833Z" fill="#D6D6D6"/>
<path d="M43.8027 132.205L35.244 150.086L39.5234 153.6L43.8027 132.205Z" fill="#D6D6D6"/>
<path d="M52.9535 132.797L55.0124 156.952L63.0463 153.6L52.9535 132.797Z" fill="#D6D6D6"/>
<path d="M218.339 79.0569C216.823 80.4712 214.97 81.4725 212.956 81.9651C209.794 82.6787 206.887 79.4473 206.093 78.2894C205.299 77.1315 203.913 67.9085 204.478 63.5865C205.044 59.2645 205.824 44.7366 206.887 42.0438C207.95 39.351 207.869 31.5013 211.328 28.5796C214.786 25.6579 216.172 22.965 221.313 22.5072C226.454 22.0495 227.624 20.1106 232.079 21.484C236.533 22.8573 242.279 25.0385 243.544 26.5196C244.809 28.0006 251.78 33.6287 253.502 35.9445C255.225 38.2604 255.413 48.7759 256.355 56.2216C257.297 63.6673 258.656 69.5242 258.078 74.3309C257.499 79.1377 260.675 82.4095 255.036 83.6078C249.398 84.8061 242.844 82.8134 240.557 82.3556C238.269 81.8978 235.981 81.3189 230.827 80.1744C226.704 79.4438 222.526 79.0699 218.339 79.0569V79.0569Z" fill="#D0B26F"/>
<path d="M61.5256 265.756H29.6862C29.2793 265.756 28.8891 265.595 28.6014 265.307C28.3137 265.019 28.1521 264.629 28.1521 264.221V256.493C28.3674 255.901 28.6231 255.281 28.9192 254.648C29.2152 254.016 29.3363 253.746 29.5516 253.302C30.3211 254.821 31.5664 256.046 33.0974 256.79C34.6283 257.534 36.3606 257.756 38.0296 257.422C39.2315 257.071 40.3341 256.442 41.2481 255.586C42.1622 254.73 42.8621 253.671 43.2913 252.494L52.9534 253.841C55.6302 253.841 58.1974 254.904 60.0901 256.798C61.9829 258.692 63.0462 261.261 63.0462 263.939V264.181C63.0516 264.385 63.0163 264.588 62.9425 264.778C62.8687 264.968 62.7577 265.141 62.6161 265.288C62.4746 265.434 62.3052 265.551 62.118 265.632C61.9307 265.712 61.7294 265.755 61.5256 265.756Z" fill="#E62C35"/>
<path d="M63.0597 262.606H28.1521V265.756H63.0597V262.606Z" fill="#E3E3E3"/>
<path d="M36.0784 273H4.23897C4.03702 273.004 3.83638 272.967 3.64877 272.892C3.46116 272.817 3.29033 272.706 3.14627 272.564C3.0022 272.422 2.88778 272.253 2.80968 272.067C2.73158 271.881 2.69137 271.681 2.69141 271.479V263.737C2.90672 263.144 3.1624 262.525 3.445 261.892C3.7276 261.259 3.87563 260.99 4.09094 260.546C4.85688 262.068 6.10171 263.295 7.63366 264.04C9.16562 264.784 10.8997 265.004 12.5689 264.666C13.7675 264.308 14.8667 263.677 15.7798 262.822C16.6929 261.967 17.3949 260.911 17.8306 259.738L27.4793 261.084C28.8178 261.072 30.1454 261.325 31.3851 261.83C32.6248 262.336 33.7519 263.082 34.7008 264.027C35.6498 264.971 36.4019 266.095 36.9132 267.332C37.4246 268.57 37.6852 269.897 37.6797 271.236V271.479C37.6781 271.685 37.635 271.889 37.5529 272.078C37.4709 272.267 37.3515 272.438 37.2021 272.58C37.0526 272.722 36.876 272.832 36.683 272.904C36.4899 272.977 36.2843 273.009 36.0784 273V273Z" fill="#E62C35"/>
<path d="M37.626 269.849H2.71838V273H37.626V269.849Z" fill="#E3E3E3"/>
<path d="M177.551 145.934H168.198V159.438H177.551V145.934Z" fill="#E9C8AD"/>
<path d="M202.137 144.816L180.309 137.815L178.748 129.05L197.225 135.782C197.497 135.885 197.788 135.928 198.079 135.909C198.369 135.889 198.652 135.806 198.908 135.667C199.164 135.528 199.386 135.335 199.56 135.101C199.734 134.867 199.856 134.599 199.916 134.314C200.061 133.257 200.088 132.186 199.997 131.123V105.541H207.506V130.988C207.528 134.666 207.076 138.332 206.16 141.894V141.894C205.73 143.295 203.388 145.341 202.137 144.816Z" fill="#E9C8AD"/>
<path d="M185.988 137.101C185.603 141.054 184.259 144.854 182.072 148.169C179.112 152.383 174.469 154.901 171.858 154.901C169.248 154.901 164.269 152.087 161.295 147.832C159.192 144.611 157.958 140.9 157.715 137.061C157.715 127.192 164.053 119.194 171.858 119.194C179.664 119.194 185.988 127.232 185.988 137.101Z" fill="#FCD7B9"/>
<path d="M157.715 138.986C157.715 138.986 155.831 137.088 155.575 132.173C155.32 127.259 155.831 123.206 157.715 120.93C159.766 118.446 162.623 116.759 165.789 116.164C168.481 115.639 172.168 114.818 175.034 115.477C177.393 116.124 179.521 117.427 181.171 119.234C183.58 121.765 186.459 121.415 187.092 124.956C187.724 128.497 188.236 132.16 187.092 135.068L185.948 137.99C185.793 136.081 185.367 134.204 184.683 132.415L183.431 128.632C183.155 127.601 182.663 126.641 181.988 125.815C181.313 124.988 180.47 124.315 179.516 123.839C176.111 121.94 176.353 121.684 173.325 121.307C170.297 120.93 169.167 120.796 166.395 121.873C165.047 122.299 163.829 123.062 162.857 124.089C161.884 125.116 161.189 126.373 160.837 127.743C159.856 130.379 159.056 133.078 158.442 135.822L157.715 138.986Z" fill="#D0B26F"/>
<path d="M158.356 142.619C159.407 142.413 159.86 140.206 159.368 137.688C158.876 135.17 157.626 133.296 156.575 133.501C155.525 133.707 155.072 135.914 155.564 138.432C156.056 140.95 157.306 142.824 158.356 142.619Z" fill="#FCD7B9"/>
<path d="M188.26 138.433C188.752 135.915 188.3 133.707 187.249 133.502C186.199 133.296 184.949 135.171 184.457 137.689C183.965 140.206 184.418 142.414 185.468 142.619C186.518 142.825 187.769 140.95 188.26 138.433Z" fill="#FCD7B9"/>
<path d="M165.583 135.686C165.838 134.379 165.436 133.201 164.685 133.054C163.934 132.907 163.118 133.847 162.862 135.153C162.607 136.46 163.009 137.638 163.761 137.785C164.512 137.932 165.328 136.992 165.583 135.686Z" fill="#1D1D1B"/>
<path d="M180.154 135.687C180.409 134.381 180.007 133.203 179.255 133.056C178.504 132.909 177.688 133.849 177.433 135.155C177.178 136.462 177.58 137.64 178.331 137.787C179.083 137.933 179.899 136.994 180.154 135.687Z" fill="#1D1D1B"/>
<path d="M171.859 149.246C173.187 149.332 174.512 149.029 175.671 148.374C176.83 147.719 177.773 146.74 178.385 145.557C178.444 145.389 178.461 145.209 178.435 145.033C178.409 144.856 178.341 144.689 178.237 144.545C178.132 144.401 177.995 144.284 177.835 144.205C177.676 144.125 177.5 144.086 177.322 144.089H166.368C166.191 144.088 166.017 144.129 165.859 144.209C165.702 144.29 165.566 144.407 165.463 144.551C165.36 144.694 165.293 144.861 165.268 145.036C165.243 145.211 165.26 145.39 165.318 145.557C165.93 146.743 166.875 147.724 168.037 148.38C169.199 149.036 170.528 149.337 171.859 149.246Z" fill="#751B15"/>
<path d="M167.256 144.129H175.788V144.735C175.788 144.781 175.779 144.827 175.761 144.869C175.744 144.912 175.718 144.95 175.685 144.983C175.653 145.015 175.614 145.041 175.572 145.059C175.529 145.076 175.484 145.085 175.438 145.085H167.579C167.533 145.085 167.488 145.076 167.445 145.059C167.403 145.041 167.364 145.015 167.332 144.983C167.299 144.95 167.273 144.912 167.256 144.869C167.238 144.827 167.229 144.781 167.229 144.735V144.129H167.256Z" fill="white"/>
<path d="M177.564 156.786C177.564 158.253 175.478 159.479 172.881 159.479C170.284 159.479 168.198 158.307 168.198 156.786H162.465C161.05 156.803 159.698 157.379 158.703 158.387C157.708 159.395 157.15 160.755 157.15 162.171V207.303C158.1 208.014 159.179 208.535 160.326 208.838C163.381 209.942 169.167 209.592 172.437 209.714C175.546 209.606 178.95 209.956 182.086 209.323C184.351 208.893 186.562 208.216 188.68 207.303V162.131C188.68 160.714 188.122 159.354 187.127 158.346C186.132 157.338 184.78 156.763 183.364 156.745L177.564 156.786Z" fill="#E8384A"/>
<path d="M159.639 173.751H151L152.749 162.373C153.328 159.936 157.217 157.473 161.429 156.988L159.639 159.681V173.751Z" fill="#E8384A"/>
<path d="M186.029 173.751H194.628L192.865 162.373C192.286 159.936 188.397 157.473 184.199 156.988L185.975 159.681L186.029 173.751Z" fill="#E8384A"/>
<path d="M53.1823 103.849L60.1262 100.201L49.1183 97.1039L53.1823 103.849Z" fill="#B9163C"/>
<path d="M52.2538 99.0157C54.201 99.0157 55.7795 97.4363 55.7795 95.4881C55.7795 93.5398 54.201 91.9604 52.2538 91.9604C50.3066 91.9604 48.728 93.5398 48.728 95.4881C48.728 97.4363 50.3066 99.0157 52.2538 99.0157Z" fill="#B9163C"/>
<path d="M58.296 100.699C60.2432 100.699 61.8218 99.1194 61.8218 97.1712C61.8218 95.2229 60.2432 93.6436 58.296 93.6436C56.3488 93.6436 54.7703 95.2229 54.7703 97.1712C54.7703 99.1194 56.3488 100.699 58.296 100.699Z" fill="#B9163C"/>
<path d="M55.8496 98.5944C56.0254 97.9642 55.6223 97.3009 54.9494 97.113C54.2765 96.9252 53.5885 97.2839 53.4127 97.9142C53.237 98.5445 53.64 99.2077 54.3129 99.3956C54.9858 99.5834 55.6738 99.2247 55.8496 98.5944Z" fill="#B9163C"/>
<path d="M188.047 207.398H157.688V221.387H188.047V207.398Z" fill="#1B3257"/>
<path d="M171.226 231.041H157.688V218.856H172.868L171.226 231.041Z" fill="#1B3257"/>
<path d="M188.047 231.041H174.496L172.868 218.856H188.047V231.041Z" fill="#1B3257"/>
<path d="M167.512 231.041H160.299V261.174H167.512V231.041Z" fill="#FCD7B9"/>
<path d="M185.154 231.041H177.941V261.174H185.154V231.041Z" fill="#FCD7B9"/>
<path d="M181.548 259.06C179.313 259.06 177.171 259.948 175.591 261.528C174.011 263.109 173.123 265.253 173.123 267.488H189.972C189.968 265.254 189.079 263.112 187.5 261.532C185.921 259.953 183.781 259.063 181.548 259.06V259.06Z" fill="#36342D"/>
<path d="M173.096 267.488H189.945C189.945 268.07 189.714 268.629 189.302 269.04C188.891 269.452 188.333 269.683 187.751 269.683H175.29C174.708 269.683 174.15 269.452 173.739 269.04C173.328 268.629 173.096 268.07 173.096 267.488V267.488Z" fill="#E3E3E3"/>
<path d="M177.134 260.877L180.902 260.258C181.289 260.191 181.685 260.191 182.072 260.258L186.944 261.12L182.503 259.773C181.828 259.565 181.106 259.565 180.431 259.773L177.134 260.877Z" fill="#E3E3E3"/>
<path d="M177.134 261.847L180.888 261.214C181.281 261.153 181.68 261.153 182.072 261.214L186.957 262.076L182.503 260.729C181.829 260.514 181.105 260.514 180.431 260.729L177.134 261.847Z" fill="#E3E3E3"/>
<path d="M163.058 259.06C160.823 259.06 158.681 259.948 157.101 261.528C155.521 263.109 154.633 265.253 154.633 267.488H171.468C171.468 265.255 170.583 263.114 169.006 261.533C167.429 259.953 165.289 259.063 163.058 259.06Z" fill="#36342D"/>
<path d="M154.633 267.488H171.482C171.482 268.07 171.251 268.629 170.839 269.04C170.428 269.452 169.87 269.683 169.288 269.683H156.827C156.245 269.683 155.687 269.452 155.276 269.04C154.865 268.629 154.633 268.07 154.633 267.488V267.488Z" fill="#E3E3E3"/>
<path d="M158.644 260.877L162.398 260.258C162.79 260.191 163.191 260.191 163.582 260.258L168.454 261.12L164.013 259.773C163.338 259.565 162.616 259.565 161.941 259.773L158.644 260.877Z" fill="#E3E3E3"/>
<path d="M158.617 261.847L162.331 261.268C162.723 261.207 163.123 261.207 163.515 261.268L168.4 262.13L163.946 260.783C163.272 260.568 162.547 260.568 161.873 260.783L158.617 261.847Z" fill="#E3E3E3"/>
<path d="M157.473 173.697H152.4V210.993H157.473V173.697Z" fill="#FCD7B9"/>
<path d="M193.121 173.697H188.047V210.993H193.121V173.697Z" fill="#FCD7B9"/>
<path d="M237.542 64.6367H222.766V93.477H237.542V64.6367Z" fill="#DCBEA4"/>
<path d="M249.398 52.5728C248.861 57.9763 247.014 63.1668 244.015 67.6931C239.978 73.4423 233.667 76.8891 230.101 76.8891C226.535 76.8891 219.779 73.0384 215.728 67.2622C212.88 62.8648 211.221 57.8036 210.911 52.5728C210.911 39.1086 219.537 28.2565 230.154 28.2565C240.772 28.2565 249.398 39.1894 249.398 52.5728Z" fill="#FCD7B9"/>
<path d="M253.328 54.5877C253.997 51.1649 253.191 48.1266 251.527 47.8014C249.864 47.4761 247.974 49.9871 247.305 53.4099C246.637 56.8326 247.443 59.871 249.106 60.1962C250.769 60.5215 252.659 58.0104 253.328 54.5877Z" fill="#FCD7B9"/>
<path d="M218.339 53.5423C219.38 53.5423 220.223 52.0715 220.223 50.2571C220.223 48.4427 219.38 46.9718 218.339 46.9718C217.299 46.9718 216.455 48.4427 216.455 50.2571C216.455 52.0715 217.299 53.5423 218.339 53.5423Z" fill="#1D1D1B"/>
<path d="M235.147 53.5423C236.187 53.5423 237.031 52.0715 237.031 50.2571C237.031 48.4427 236.187 46.9718 235.147 46.9718C234.106 46.9718 233.263 48.4427 233.263 50.2571C233.263 52.0715 234.106 53.5423 235.147 53.5423Z" fill="#1D1D1B"/>
<path d="M224.058 193.314H209.632V259.545H224.058V193.314Z" fill="#FCD7B9"/>
<path d="M254.256 194.97H239.83V259.141H254.256V194.97Z" fill="#FCD7B9"/>
<path d="M266.058 201.877C261.106 201.877 256.261 200.531 251.255 200.531C244.836 200.531 238.309 201.877 231.89 201.877C224.933 201.877 219.173 200.275 212.203 200.275C207.802 200.275 202.191 201.877 197.79 201.877C197.051 201.93 196.309 201.806 195.626 201.516C194.944 201.226 194.34 200.778 193.864 200.209C193.388 199.64 193.055 198.966 192.89 198.242C192.726 197.518 192.736 196.766 192.919 196.047L205.73 155.52H254.915L270.822 195.765C272.006 198.74 269.557 201.877 266.058 201.877Z" fill="#132541"/>
<path d="M237.69 78.9493C237.69 81.1708 234.38 92.9116 230.302 92.9116C226.225 92.9116 222.888 81.1708 222.888 78.9493H213.831C212.74 78.9261 211.656 79.1192 210.64 79.5175C209.624 79.9158 208.698 80.5115 207.913 81.27C207.129 82.0286 206.502 82.9351 206.07 83.9372C205.637 84.9393 205.407 86.0171 205.393 87.1086L209.834 127.367C210.169 130.422 210.024 133.511 209.404 136.522L205.366 156.139C206.868 157.237 208.568 158.033 210.372 158.482C215.19 160.179 224.314 159.654 229.387 159.829C234.299 159.681 239.655 160.206 244.607 159.236C248.174 158.581 251.662 157.548 255.01 156.153L251.376 136.643C250.877 133.94 250.759 131.18 251.026 128.444L255.063 87.122C255.031 84.9282 254.131 82.8367 252.559 81.3069C250.987 79.7771 248.872 78.9339 246.68 78.9627L237.69 78.9493Z" fill="#F28C49"/>
<path d="M209.35 105.595H195.718L198.476 87.6606C199.405 83.8233 205.528 79.9187 212.162 79.2051L209.35 83.3924V105.595Z" fill="#F28C49"/>
<path d="M250.972 105.595H264.604L261.832 87.6606C260.917 83.8233 254.781 79.9187 248.16 79.2051L250.972 83.3924V105.595Z" fill="#F28C49"/>
<path d="M216.159 254.872C212.81 254.876 209.6 256.209 207.233 258.58C204.866 260.951 203.536 264.164 203.536 267.515H228.795C228.795 264.162 227.464 260.946 225.094 258.575C222.724 256.204 219.51 254.872 216.159 254.872Z" fill="#CF9D00"/>
<path d="M203.496 267.515H228.755C228.755 268.39 228.407 269.229 227.789 269.848C227.171 270.467 226.332 270.814 225.458 270.814H206.739C205.865 270.814 205.026 270.467 204.408 269.848C203.79 269.229 203.442 268.39 203.442 267.515V267.515H203.496Z" fill="#E3E3E3"/>
<path d="M209.646 257.606L215.298 256.663C215.881 256.562 216.477 256.562 217.061 256.663L224.381 257.942L217.653 255.95C216.641 255.633 215.556 255.633 214.544 255.95L209.646 257.606Z" fill="#E3E3E3"/>
<path d="M209.646 259.046L215.298 258.104C215.881 258.003 216.477 258.003 217.061 258.104L224.381 259.45L217.653 257.457C216.641 257.141 215.556 257.141 214.544 257.457L209.646 259.046Z" fill="#E3E3E3"/>
<path d="M247.11 254.872C243.761 254.876 240.551 256.209 238.184 258.58C235.817 260.951 234.488 264.164 234.488 267.515H259.746C259.746 265.855 259.42 264.211 258.785 262.677C258.15 261.143 257.219 259.749 256.045 258.575C254.872 257.401 253.479 256.47 251.946 255.835C250.413 255.199 248.77 254.872 247.11 254.872V254.872Z" fill="#CF9D00"/>
<path d="M234.42 267.515H259.679C259.679 268.39 259.332 269.229 258.714 269.848C258.095 270.467 257.257 270.814 256.382 270.814H237.69C236.816 270.814 235.977 270.467 235.359 269.848C234.741 269.229 234.393 268.39 234.393 267.515V267.515H234.42Z" fill="#E3E3E3"/>
<path d="M240.57 257.606L246.222 256.663C246.805 256.562 247.402 256.562 247.985 256.663L255.306 257.942L248.577 255.949C247.57 255.633 246.489 255.633 245.482 255.949L240.57 257.606Z" fill="#E3E3E3"/>
<path d="M240.57 259.046L246.222 258.104C246.805 258.003 247.402 258.003 247.985 258.104L255.306 259.45L248.577 257.458C247.57 257.141 246.489 257.141 245.482 257.458L240.57 259.046Z" fill="#E3E3E3"/>
<path d="M257.23 144.816L234.851 137.815L233.263 129.05L252.21 135.782C252.483 135.876 252.772 135.913 253.06 135.889C253.348 135.865 253.627 135.781 253.88 135.643C254.134 135.505 254.355 135.315 254.531 135.086C254.707 134.858 254.833 134.594 254.902 134.314C255.054 133.257 255.081 132.186 254.983 131.123V105.541H262.694V130.988C262.693 134.669 262.218 138.335 261.281 141.894V141.894C260.931 143.295 258.522 145.341 257.23 144.816Z" fill="#FCD7B9"/>
<path d="M234.044 138.272C237.529 138.272 240.355 135.976 240.355 133.143C240.355 130.309 237.529 128.013 234.044 128.013C230.558 128.013 227.732 130.309 227.732 133.143C227.732 135.976 230.558 138.272 234.044 138.272Z" fill="#FCD7B9"/>
<path d="M230.154 68.2721C231.483 68.3583 232.808 68.0553 233.967 67.4001C235.126 66.7449 236.069 65.7659 236.681 64.5829C236.739 64.4159 236.757 64.2373 236.731 64.0622C236.706 63.8872 236.639 63.7207 236.537 63.5768C236.434 63.433 236.298 63.316 236.14 63.2357C235.983 63.1554 235.808 63.1141 235.631 63.1153H224.691C224.513 63.1119 224.337 63.1516 224.178 63.231C224.018 63.3103 223.881 63.4271 223.776 63.5713C223.672 63.7154 223.604 63.8827 223.578 64.0589C223.552 64.235 223.569 64.4148 223.628 64.5829C224.24 65.7659 225.183 66.7449 226.342 67.4001C227.501 68.0553 228.826 68.3583 230.154 68.2721V68.2721Z" fill="#751B15"/>
<path d="M225.579 63.1154H234.138V63.7212C234.138 63.8141 234.101 63.9031 234.035 63.9688C233.97 64.0344 233.881 64.0713 233.788 64.0713H225.929C225.836 64.0713 225.747 64.0344 225.681 63.9688C225.616 63.9031 225.579 63.8141 225.579 63.7212V63.1154V63.1154Z" fill="white"/>
<path d="M210.911 44.2654L216.455 39.4452L227.302 30.2896L232.684 39.1086L242.535 46.0965L248.16 50.257L250.327 59.3857L249.398 61.6881L252.843 58.8202L255.063 50.257L249.398 40.482L239.211 28.2969L224.206 25.5906L214.248 33.7229L210.911 44.2654Z" fill="#D0B26F"/>
</g>
<defs>
<clipPath id="clip0_117_117">
<rect width="277" height="273" fill="white"/>
</clipPath>
</defs>
</svg>
