<svg width="512" height="512" viewBox="0 0 512 512" fill="none" xmlns="http://www.w3.org/2000/svg">
<path d="M512 256C512 114.615 397.385 0 256 0C114.615 0 0 114.615 0 256C0 397.385 114.615 512 256 512C397.385 512 512 397.385 512 256Z" fill="#28316F"/>
<path d="M283.128 390.548L352.357 143.656C352.357 143.656 349.347 155.382 268.157 229.028C186.967 302.673 136.072 346.65 136.072 346.65L87.6396 391.095L283.128 390.548Z" fill="#3072B8"/>
<path d="M269.564 225.236H329.919L354.194 140.724L269.564 225.236Z" fill="#87C1D9"/>
<path d="M178.172 309.71L269.564 225.236H329.919L304.823 309.71H178.172Z" fill="#48B9DC"/>
<path d="M354.194 140.724L385.583 111.094L322.688 111.015L354.194 140.724Z" fill="white"/>
<path d="M336.916 117.231C347.646 117.231 356.344 108.533 356.344 97.8031C356.344 87.0734 347.646 78.3754 336.916 78.3754C326.187 78.3754 317.489 87.0734 317.489 97.8031C317.489 108.533 326.187 117.231 336.916 117.231Z" fill="white"/>
<path d="M371.472 117.231C382.201 117.231 390.899 108.533 390.899 97.8031C390.899 87.0734 382.201 78.3754 371.472 78.3754C360.742 78.3754 352.044 87.0734 352.044 97.8031C352.044 108.533 360.742 117.231 371.472 117.231Z" fill="white"/>
<path d="M353.608 115.472C357.45 115.472 360.566 112.549 360.566 108.944C360.566 105.338 357.45 102.416 353.608 102.416C349.765 102.416 346.65 105.338 346.65 108.944C346.65 112.549 349.765 115.472 353.608 115.472Z" fill="white"/>
</svg>
