<svg width="164" height="196" viewBox="0 0 164 196" fill="none" xmlns="http://www.w3.org/2000/svg">
<g clip-path="url(#clip0_147_562)">
<path d="M96.513 87.3666H68.1328V122.665H96.513V87.3666Z" fill="white"/>
<path d="M119.284 64.2911C118.254 74.6615 114.704 84.6232 108.946 93.31C101.191 104.318 89.0692 110.959 82.2197 110.959C75.3702 110.959 62.3949 103.569 54.615 92.4831C49.1082 84.0537 45.8842 74.3396 45.2583 64.2911C45.2583 38.4506 61.8005 17.6232 82.2197 17.6232C102.639 17.6232 119.284 38.5281 119.284 64.2911Z" fill="white"/>
<path d="M47.035 78.6946C49.795 78.1552 50.9912 72.3929 49.7068 65.8239C48.4225 59.255 45.144 54.3671 42.384 54.9064C39.6241 55.4457 38.4279 61.2081 39.7122 67.777C40.9966 74.346 44.2751 79.2339 47.035 78.6946Z" fill="white"/>
<path d="M125.28 67.7566C126.564 61.1877 125.368 55.4253 122.608 54.8859C119.848 54.3466 116.569 59.2346 115.285 65.8035C114.001 72.3724 115.197 78.1348 117.957 78.6741C120.717 79.2135 123.995 74.3255 125.28 67.7566Z" fill="white"/>
<path d="M45.9045 67.8829C45.9045 67.8829 38.4606 62.9474 37.8144 50.0788C37.1682 37.2103 31.7145 32.7657 35.2297 25.8922C38.7449 19.0186 44.4571 15.8919 50.0659 9.61265C55.6747 3.33342 68.7275 1.11114 69.0377 1.03362C79.725 -0.776245 90.6864 -0.0863586 101.062 3.04917C108.325 5.63322 116.054 7.95886 122.179 15.22C128.305 22.4812 129.21 31.1636 130.864 40.4145C132.518 49.6654 125.695 50.053 122.8 57.6759L119.827 65.273C119.419 60.3 118.305 55.4102 116.519 50.7507L113.236 40.8538C112.498 38.1492 111.195 35.6316 109.413 33.467C107.631 31.3024 105.41 29.5398 102.897 28.2953C94.0836 23.2564 94.7556 22.6879 86.8205 21.706C78.8855 20.7241 75.9389 20.3623 68.7275 23.2047C61.5162 26.0472 57.4582 29.3031 54.279 38.5281C51.7266 45.4184 49.637 52.4713 48.024 59.6398L45.9045 67.8829Z" fill="white"/>
<path d="M62.3691 66.2033C64.3676 66.2033 65.9877 63.3804 65.9877 59.8982C65.9877 56.416 64.3676 53.5931 62.3691 53.5931C60.3706 53.5931 58.7505 56.416 58.7505 59.8982C58.7505 63.3804 60.3706 66.2033 62.3691 66.2033Z" fill="white"/>
<path d="M100.494 66.2033C102.492 66.2033 104.112 63.3804 104.112 59.8982C104.112 56.416 102.492 53.5931 100.494 53.5931C98.4951 53.5931 96.875 56.416 96.875 59.8982C96.875 63.3804 98.4951 66.2033 100.494 66.2033Z" fill="white"/>
<path d="M82.323 96.0232C92.1449 96.0232 100.106 90.0024 100.106 82.5603H64.6177C64.6177 90.0024 72.501 96.0232 82.323 96.0232Z" fill="white"/>
<path d="M144.459 172.614V159.462H129.675V182.356C134.837 179.478 139.779 176.222 144.459 172.614V172.614Z" fill="#36A9E1"/>
<path d="M34.325 186.594V158.79H19.5146V178.506C24.2327 181.584 29.1847 184.289 34.325 186.594V186.594Z" fill="white"/>
<path d="M41.8721 163.519H15.689L21.0135 129.202C22.7711 121.838 34.5315 114.344 47.2742 112.975L41.8721 120.985V163.519Z" fill="white"/>
<path d="M121.817 163.519H148.001L142.676 129.202C140.918 121.734 129.236 114.241 116.312 112.871L121.714 120.882L121.817 163.519Z" fill="white"/>
<path d="M104.112 181.814L120.964 165.948L87.2339 165.87L104.112 181.814Z" fill="#B9163C"/>
<path d="M94.8588 169.203C100.612 169.203 105.275 164.541 105.275 158.79C105.275 153.038 100.612 148.376 94.8588 148.376C89.106 148.376 84.4424 153.038 84.4424 158.79C84.4424 164.541 89.106 169.203 94.8588 169.203Z" fill="#B9163C"/>
<path d="M113.391 169.203C119.144 169.203 123.808 164.541 123.808 158.79C123.808 153.038 119.144 148.376 113.391 148.376C107.639 148.376 102.975 153.038 102.975 158.79C102.975 164.541 107.639 169.203 113.391 169.203Z" fill="#B9163C"/>
<path d="M103.828 168.273C105.884 168.273 107.55 166.7 107.55 164.759C107.55 162.818 105.884 161.245 103.828 161.245C101.772 161.245 100.106 162.818 100.106 164.759C100.106 166.7 101.772 168.273 103.828 168.273Z" fill="#B9163C"/>
<path d="M100.804 193.519C110.958 191.238 120.726 187.495 129.805 182.408V128.505C129.808 126.387 129.394 124.29 128.587 122.332C127.779 120.375 126.594 118.595 125.099 117.095C123.604 115.596 121.827 114.405 119.872 113.592C117.916 112.778 115.82 112.358 113.702 112.354H96.1774C96.1774 116.773 89.8448 120.339 81.9873 120.339C74.1298 120.339 67.7972 116.773 67.7972 112.354H50.4021C46.129 112.368 42.036 114.076 39.0218 117.105C36.0075 120.133 34.3183 124.233 34.3252 128.505V186.62C48.2244 192.822 63.2773 196.018 78.498 196C79.8679 196 81.2377 196 82.6076 196C88.7285 195.648 94.8125 194.819 100.804 193.519V193.519Z" fill="white"/>
<path d="M151.593 125.12H12.4065C8.56652 125.12 5.45361 128.232 5.45361 132.071V177.472C5.45361 181.311 8.56652 184.423 12.4065 184.423H151.593C155.433 184.423 158.546 181.311 158.546 177.472V132.071C158.546 128.232 155.433 125.12 151.593 125.12Z" fill="#C9C9C9"/>
<path d="M17.321 163V152.091H18.642V156.949H24.4588V152.091H25.7798V163H24.4588V158.121H18.642V163H17.321ZM28.9998 163.149V161.913H29.6816C29.9444 161.913 30.1646 161.862 30.3422 161.759C30.5233 161.656 30.6724 161.523 30.7896 161.359C30.9103 161.196 31.0098 161.026 31.0879 160.848L31.2583 160.443L27.487 152.091H28.9146L31.9189 158.866L34.6674 152.091H36.0737L32.3024 161.232C32.1532 161.572 31.9828 161.889 31.791 162.18C31.6028 162.471 31.3453 162.705 31.0186 162.883C30.6955 163.06 30.2569 163.149 29.7029 163.149H28.9998ZM44.2409 152.091V163H42.9198V152.091H44.2409ZM36.8687 163L40.4056 157.311L37.167 152.091H38.765L41.5988 156.928H45.5832L48.417 152.091H50.015L46.7551 157.332L50.292 163H48.7792L45.8176 158.163H41.3431L38.3602 163H36.8687ZM52.0232 163V152.091H53.3442V156.949H59.161V152.091H60.482V163H59.161V158.121H53.3442V163H52.0232ZM63.5741 163H62.1892L66.1949 152.091H67.5585L71.5642 163H70.1792L66.9193 153.817H66.8341L63.5741 163ZM64.0855 158.739H69.6679V159.911H64.0855V158.739ZM85.6427 152.091V163H84.3216V153.263H78.8245V163H77.5035V152.091H85.6427ZM97.5119 157.545C97.5119 158.696 97.3042 159.69 96.8887 160.528C96.4732 161.366 95.9032 162.013 95.1788 162.467C94.4544 162.922 93.627 163.149 92.6966 163.149C91.7662 163.149 90.9387 162.922 90.2143 162.467C89.4899 162.013 88.9199 161.366 88.5044 160.528C88.089 159.69 87.8812 158.696 87.8812 157.545C87.8812 156.395 88.089 155.401 88.5044 154.563C88.9199 153.724 89.4899 153.078 90.2143 152.624C90.9387 152.169 91.7662 151.942 92.6966 151.942C93.627 151.942 94.4544 152.169 95.1788 152.624C95.9032 153.078 96.4732 153.724 96.8887 154.563C97.3042 155.401 97.5119 156.395 97.5119 157.545ZM96.2335 157.545C96.2335 156.601 96.0755 155.804 95.7594 155.154C95.4469 154.504 95.0225 154.012 94.4863 153.678C93.9537 153.344 93.3571 153.178 92.6966 153.178C92.036 153.178 91.4377 153.344 90.9015 153.678C90.3688 154.012 89.9444 154.504 89.6284 155.154C89.3159 155.804 89.1596 156.601 89.1596 157.545C89.1596 158.49 89.3159 159.287 89.6284 159.937C89.9444 160.587 90.3688 161.079 90.9015 161.413C91.4377 161.746 92.036 161.913 92.6966 161.913C93.3571 161.913 93.9537 161.746 94.4863 161.413C95.0225 161.079 95.4469 160.587 95.7594 159.937C96.0755 159.287 96.2335 158.49 96.2335 157.545ZM99.7331 152.091H101.31L105.017 161.146H105.145L108.852 152.091H110.429V163H109.193V154.712H109.087L105.678 163H104.485L101.075 154.712H100.969V163H99.7331V152.091ZM122.282 157.545C122.282 158.696 122.075 159.69 121.659 160.528C121.244 161.366 120.674 162.013 119.949 162.467C119.225 162.922 118.397 163.149 117.467 163.149C116.537 163.149 115.709 162.922 114.985 162.467C114.26 162.013 113.69 161.366 113.275 160.528C112.859 159.69 112.652 158.696 112.652 157.545C112.652 156.395 112.859 155.401 113.275 154.563C113.69 153.724 114.26 153.078 114.985 152.624C115.709 152.169 116.537 151.942 117.467 151.942C118.397 151.942 119.225 152.169 119.949 152.624C120.674 153.078 121.244 153.724 121.659 154.563C122.075 155.401 122.282 156.395 122.282 157.545ZM121.004 157.545C121.004 156.601 120.846 155.804 120.53 155.154C120.217 154.504 119.793 154.012 119.257 153.678C118.724 153.344 118.128 153.178 117.467 153.178C116.807 153.178 116.208 153.344 115.672 153.678C115.139 154.012 114.715 154.504 114.399 155.154C114.086 155.804 113.93 156.601 113.93 157.545C113.93 158.49 114.086 159.287 114.399 159.937C114.715 160.587 115.139 161.079 115.672 161.413C116.208 161.746 116.807 161.913 117.467 161.913C118.128 161.913 118.724 161.746 119.257 161.413C119.793 161.079 120.217 160.587 120.53 159.937C120.846 159.287 121.004 158.49 121.004 157.545ZM137.203 161.828L137.053 165.578H135.754V163H134.71V161.828H137.203ZM124.504 152.091H125.825V161.786H129.66V152.091H130.981V161.786H134.816V152.091H136.137V163H124.504V152.091ZM140.191 156.672H143.302C144.083 156.672 144.742 156.8 145.278 157.055C145.818 157.311 146.226 157.672 146.503 158.137C146.783 158.602 146.924 159.151 146.924 159.783C146.924 160.415 146.783 160.972 146.503 161.455C146.226 161.938 145.818 162.316 145.278 162.59C144.742 162.863 144.083 163 143.302 163H139.211V152.091H140.532V161.849H143.302C143.799 161.849 144.22 161.75 144.564 161.551C144.912 161.349 145.175 161.089 145.352 160.773C145.533 160.454 145.624 160.116 145.624 159.761C145.624 159.239 145.423 158.79 145.022 158.414C144.621 158.034 144.047 157.844 143.302 157.844H140.191V156.672Z" fill="white"/>
<path d="M158.546 166.077C161.558 166.077 164 161.819 164 156.567C164 151.316 161.558 147.058 158.546 147.058C155.534 147.058 153.092 151.316 153.092 156.567C153.092 161.819 155.534 166.077 158.546 166.077Z" fill="white"/>
<path d="M5.45374 166.077C8.46576 166.077 10.9075 161.819 10.9075 156.567C10.9075 151.316 8.46576 147.058 5.45374 147.058C2.44172 147.058 0 151.316 0 156.567C0 161.819 2.44172 166.077 5.45374 166.077Z" fill="white"/>
</g>
<defs>
<clipPath id="clip0_147_562">
<rect width="164" height="196" fill="white"/>
</clipPath>
</defs>
</svg>
