<svg width="137" height="200" viewBox="0 0 137 200" fill="none" xmlns="http://www.w3.org/2000/svg">
<path d="M83.6881 87.3979H54.3022V123.986H83.6881V87.3979Z" fill="white"/>
<path d="M107.266 63.4793C106.201 74.2207 102.526 84.5382 96.561 93.5315C88.5321 104.969 75.9802 111.825 68.888 111.825C61.7958 111.825 48.4678 104.192 40.4121 92.7012C34.7168 83.9607 31.3792 73.8935 30.7239 63.4793C30.7239 36.6948 47.8522 15.1065 68.995 15.1065C90.1378 15.1065 107.266 36.7484 107.266 63.4793Z" fill="white"/>
<path d="M32.4685 78.373C35.3262 77.8139 36.5648 71.841 35.235 65.0321C33.9051 58.2232 30.5104 53.1567 27.6527 53.7157C24.7949 54.2748 23.5563 60.2477 24.8862 67.0566C26.216 73.8655 29.6107 78.932 32.4685 78.373Z" fill="white"/>
<path d="M113.441 67.0687C114.771 60.2598 113.532 54.2868 110.674 53.7278C107.817 53.1688 104.422 58.2353 103.092 65.0442C101.762 71.8531 103.001 77.826 105.858 78.3851C108.716 78.9441 112.111 73.8776 113.441 67.0687Z" fill="white"/>
<path d="M31.286 67.2024C31.286 67.2024 26.1743 62.0865 25.4785 48.7478C24.9987 38.7063 27.514 28.7489 32.7045 20.142C34.7656 15.3353 37.7687 10.991 41.5363 7.36574C43.272 5.44825 45.3854 3.91104 47.7436 2.85083C50.1019 1.79061 52.6538 1.23036 55.2389 1.2053C64.6939 -0.828028 74.5218 -0.27286 83.6881 2.81237C91.2085 5.49083 94.6609 4.87478 101.004 12.3744C107.347 19.8741 111.709 22.6865 113.395 32.2753C115.043 40.4474 114.176 48.9277 110.906 56.5957L107.828 64.4971C107.398 59.3321 106.236 54.2546 104.376 49.4174L100.95 39.159C100.205 36.3691 98.8779 33.7689 97.0558 31.5297C95.2336 29.2906 92.958 27.4634 90.3788 26.1685C81.1456 21.0526 81.8414 20.3562 73.6252 19.3384C65.4089 18.3206 62.3579 17.9456 54.891 20.8651C47.4241 23.7847 43.2759 27.2131 39.8502 36.7751C37.2038 43.916 35.04 51.2268 33.3735 58.6581L31.286 67.2024Z" fill="white"/>
<path d="M48.334 65.4614C50.4033 65.4614 52.0808 62.5354 52.0808 58.9259C52.0808 55.3165 50.4033 52.3905 48.334 52.3905C46.2647 52.3905 44.5872 55.3165 44.5872 58.9259C44.5872 62.5354 46.2647 65.4614 48.334 65.4614Z" fill="white"/>
<path d="M87.8096 65.4614C89.8789 65.4614 91.5564 62.5354 91.5564 58.9259C91.5564 55.3165 89.8789 52.3905 87.8096 52.3905C85.7403 52.3905 84.0627 55.3165 84.0627 58.9259C84.0627 62.5354 85.7403 65.4614 87.8096 65.4614Z" fill="white"/>
<path d="M68.995 96.4243C79.165 96.4243 87.408 90.1567 87.408 82.4427H50.582C50.582 90.1031 58.8786 96.4243 68.995 96.4243Z" fill="white"/>
<path d="M133.333 175.76V162.127H118.025V185.858C123.364 182.865 128.48 179.491 133.333 175.76Z" fill="white"/>
<path d="M19.2962 190.17V161.43H3.96094V181.867C8.85447 185.021 13.9811 187.796 19.2962 190.17V190.17Z" fill="white"/>
<path d="M27.111 166.332H0L5.51319 130.655C7.33307 123.021 19.5103 115.254 32.7044 113.807L27.111 122.137V166.332Z" fill="white"/>
<path d="M109.889 166.332H137L131.487 130.655C129.667 123.021 117.49 115.173 104.376 113.807L109.969 122.137L109.889 166.332Z" fill="white"/>
<path d="M91.5563 185.295L109.006 168.823L74.0801 168.769L91.5563 185.295Z" fill="#B9163C"/>
<path d="M81.9752 172.224C87.9319 172.224 92.7607 167.392 92.7607 161.43C92.7607 155.469 87.9319 150.636 81.9752 150.636C76.0185 150.636 71.1897 155.469 71.1897 161.43C71.1897 167.392 76.0185 172.224 81.9752 172.224Z" fill="#B9163C"/>
<path d="M101.164 172.224C107.121 172.224 111.95 167.392 111.95 161.43C111.95 155.469 107.121 150.636 101.164 150.636C95.2077 150.636 90.3789 155.469 90.3789 161.43C90.3789 167.392 95.2077 172.224 101.164 172.224Z" fill="#B9163C"/>
<path d="M91.2621 171.26C93.3905 171.26 95.116 169.629 95.116 167.618C95.116 165.606 93.3905 163.975 91.2621 163.975C89.1336 163.975 87.4082 165.606 87.4082 167.618C87.4082 169.629 89.1336 171.26 91.2621 171.26Z" fill="#B9163C"/>
<path d="M87.9969 197.429C98.5104 195.064 108.625 191.185 118.025 185.911V130.039C118.029 127.844 117.6 125.67 116.764 123.641C115.928 121.612 114.701 119.767 113.153 118.213C111.604 116.658 109.765 115.424 107.74 114.581C105.716 113.738 103.545 113.302 101.352 113.299H83.3401C83.3401 117.852 76.7564 121.575 68.6472 121.575C60.538 121.575 53.9543 117.852 53.9543 113.299H35.9428C31.5183 113.313 27.2802 115.084 24.1591 118.222C21.038 121.361 19.2891 125.611 19.2962 130.039V190.17C33.6777 196.604 49.2545 199.926 65.0074 199.92C66.4526 199.92 67.8711 199.92 69.2895 199.92C75.5788 199.559 81.8322 198.727 87.9969 197.429V197.429Z" fill="white"/>
<path d="M95.1158 179.456L112.539 162.984L77.6128 162.93L95.1158 179.456Z" fill="#B9163C"/>
<path d="M85.5079 166.385C91.4646 166.385 96.2934 161.553 96.2934 155.591C96.2934 149.63 91.4646 144.797 85.5079 144.797C79.5512 144.797 74.7224 149.63 74.7224 155.591C74.7224 161.553 79.5512 166.385 85.5079 166.385Z" fill="#B9163C"/>
<path d="M104.697 166.385C110.654 166.385 115.483 161.553 115.483 155.591C115.483 149.63 110.654 144.797 104.697 144.797C98.7405 144.797 93.9116 149.63 93.9116 155.591C93.9116 161.553 98.7405 166.385 104.697 166.385Z" fill="#B9163C"/>
<path d="M94.7948 165.421C96.9232 165.421 98.6487 163.79 98.6487 161.779C98.6487 159.767 96.9232 158.136 94.7948 158.136C92.6664 158.136 90.9409 159.767 90.9409 161.779C90.9409 163.79 92.6664 165.421 94.7948 165.421Z" fill="#B9163C"/>
</svg>
