<svg width="298" height="189" viewBox="0 0 298 189" fill="none" xmlns="http://www.w3.org/2000/svg">
<g clip-path="url(#clip0_147_496)">
<path d="M64.4521 71.8767H41.8208V99.9452H64.4521V71.8767Z" fill="#36A9E1"/>
<path d="M82.6108 53.5274C81.7904 61.7678 78.9599 69.6828 74.3662 76.5822C68.1828 85.3562 58.516 90.6164 53.054 90.6164C47.592 90.6164 37.3275 84.7603 31.1234 76.0274C26.7355 69.3304 24.1647 61.6135 23.6621 53.6301C23.6621 33.0822 36.8534 16.5205 53.1364 16.5205C69.4195 16.5205 82.6108 33.0205 82.6108 53.5274Z" fill="#36A9E1"/>
<path d="M25.0069 64.9662C27.2078 64.5374 28.1617 59.9552 27.1375 54.7317C26.1133 49.5082 23.4989 45.6214 21.298 46.0502C19.0971 46.4791 18.1432 51.0613 19.1674 56.2848C20.1916 61.5083 22.806 65.3951 25.0069 64.9662Z" fill="#36A9E1"/>
<path d="M87.3792 56.2827C88.4034 51.0592 87.4495 46.477 85.2486 46.0481C83.0477 45.6193 80.4333 49.5061 79.4091 54.7296C78.3849 59.9531 79.3388 64.5353 81.5397 64.9641C83.7406 65.393 86.355 61.5062 87.3792 56.2827Z" fill="#36A9E1"/>
<path d="M24.0948 56.3836C24.0948 56.3836 20.158 52.4589 19.6221 42.226C19.2527 34.5226 21.1898 26.8837 25.1872 20.2808C26.7746 16.5934 29.0875 13.2606 31.989 10.4795C33.3257 9.00843 34.9534 7.82915 36.7696 7.0158C38.5858 6.20245 40.5511 5.77265 42.5421 5.75343C49.8238 4.19354 57.3926 4.61944 64.452 6.9863C70.2438 9.0411 72.9027 8.56849 77.7876 14.3219C82.6725 20.0753 86.0322 22.2329 87.3307 29.589C88.6002 35.8583 87.9318 42.364 85.4138 48.2466L83.0435 54.3082C82.7123 50.3458 81.8171 46.4506 80.3846 42.7397L77.767 34.9315C77.1932 32.7912 76.171 30.7965 74.7677 29.0787C73.3643 27.3609 71.6118 25.9591 69.6255 24.9658C62.5145 21.0411 63.0504 20.5069 56.7227 19.726C50.395 18.9452 48.0453 18.6575 42.2947 20.8973C36.5441 23.137 33.3494 25.7466 30.7111 33.1027C28.673 38.5809 27.0066 44.1894 25.7231 49.8904L24.0948 56.3836Z" fill="#36A9E1"/>
<path d="M37.2245 55.0479C38.8181 55.0479 40.1101 52.8032 40.1101 50.0342C40.1101 47.2653 38.8181 45.0205 37.2245 45.0205C35.6308 45.0205 34.3389 47.2653 34.3389 50.0342C34.3389 52.8032 35.6308 55.0479 37.2245 55.0479Z" fill="#36A9E1"/>
<path d="M67.6263 55.0479C69.22 55.0479 70.5119 52.8032 70.5119 50.0342C70.5119 47.2653 69.22 45.0205 67.6263 45.0205C66.0327 45.0205 64.7407 47.2653 64.7407 50.0342C64.7407 52.8032 66.0327 55.0479 67.6263 55.0479Z" fill="#36A9E1"/>
<path d="M53.1362 78.7603C60.9686 78.7603 67.3169 73.9521 67.3169 68.0342H38.9556C38.9556 73.9726 45.3451 78.7603 53.1362 78.7603Z" fill="#36A9E1"/>
<path d="M102.686 139.726V129.205H90.8965V147.411C95.0065 145.135 98.9466 142.567 102.686 139.726V139.726Z" fill="#36A9E1"/>
<path d="M14.8606 150.76V128.671H3.05029V144.329C6.81267 146.777 10.7615 148.927 14.8606 150.76V150.76Z" fill="#36A9E1"/>
<path d="M20.8794 132.411H0L4.24595 105.041C5.64753 99.1849 15.0257 93.2466 25.1872 92.137L20.8794 98.6301V132.411Z" fill="#36A9E1"/>
<path d="M84.6305 132.411H105.51L101.264 105.041C99.8624 99.1849 90.4842 93.2466 80.3228 92.137L84.6305 98.6301V132.411Z" fill="#36A9E1"/>
<path d="M70.5115 146.979L83.9502 134.342L57.0522 134.301L70.5115 146.979Z" fill="#B9163C"/>
<path d="M63.1326 136.952C67.7201 136.952 71.439 133.245 71.439 128.671C71.439 124.098 67.7201 120.39 63.1326 120.39C58.5451 120.39 54.8262 124.098 54.8262 128.671C54.8262 133.245 58.5451 136.952 63.1326 136.952Z" fill="#B9163C"/>
<path d="M77.9114 136.952C82.4989 136.952 86.2178 133.245 86.2178 128.671C86.2178 124.098 82.4989 120.39 77.9114 120.39C73.3239 120.39 69.605 124.098 69.605 128.671C69.605 133.245 73.3239 136.952 77.9114 136.952Z" fill="#B9163C"/>
<path d="M70.2849 136.212C71.9241 136.212 73.253 134.961 73.253 133.418C73.253 131.874 71.9241 130.623 70.2849 130.623C68.6457 130.623 67.3169 131.874 67.3169 133.418C67.3169 134.961 68.6457 136.212 70.2849 136.212Z" fill="#B9163C"/>
<path d="M67.7704 156.288C75.8674 154.474 83.6573 151.497 90.8964 147.452V104.589C90.8991 102.905 90.5691 101.237 89.9253 99.6807C89.2814 98.1241 88.3363 96.7091 87.1439 95.5165C85.9515 94.324 84.5352 93.3773 82.9758 92.7304C81.4164 92.0836 79.7445 91.7493 78.0555 91.7466H64.184C64.184 95.2397 59.1136 98.0959 52.8683 98.0959C46.6231 98.0959 41.5527 95.2397 41.5527 91.7466H27.6812C24.2736 91.7575 21.0097 93.116 18.606 95.5238C16.2024 97.9316 14.8554 101.192 14.8609 104.589V150.781C25.9398 155.702 37.9361 158.237 50.0652 158.219C51.1782 158.219 52.2706 158.219 53.363 158.219C58.2072 157.936 63.0232 157.29 67.7704 156.288V156.288Z" fill="#36A9E1"/>
<path d="M73.2528 142.479L86.6709 129.863L59.7729 129.822L73.2528 142.479Z" fill="#B9163C"/>
<path d="M65.8533 132.473C70.4408 132.473 74.1597 128.765 74.1597 124.192C74.1597 119.618 70.4408 115.911 65.8533 115.911C61.2658 115.911 57.5469 119.618 57.5469 124.192C57.5469 128.765 61.2658 132.473 65.8533 132.473Z" fill="#B9163C"/>
<path d="M80.6321 132.473C85.2196 132.473 88.9385 128.765 88.9385 124.192C88.9385 119.618 85.2196 115.911 80.6321 115.911C76.0446 115.911 72.3257 119.618 72.3257 124.192C72.3257 128.765 76.0446 132.473 80.6321 132.473Z" fill="#B9163C"/>
<path d="M73.0056 131.733C74.6448 131.733 75.9737 130.482 75.9737 128.938C75.9737 127.395 74.6448 126.144 73.0056 126.144C71.3664 126.144 70.0376 127.395 70.0376 128.938C70.0376 130.482 71.3664 131.733 73.0056 131.733Z" fill="#B9163C"/>
<path d="M161.243 102.616H138.612V130.685H161.243V102.616Z" fill="#36A9E1"/>
<path d="M179.319 84.2466C178.499 92.4869 175.668 100.402 171.075 107.301C164.891 116.075 155.225 121.336 149.763 121.336C144.301 121.336 133.954 115.479 127.75 106.664C123.422 99.9428 120.908 92.2209 120.453 84.2466C120.453 63.6986 133.644 47.137 149.927 47.137C166.21 47.137 179.319 63.6986 179.319 84.2466Z" fill="#36A9E1"/>
<path d="M121.794 95.6926C123.994 95.2637 124.948 90.6816 123.924 85.458C122.9 80.2345 120.286 76.3477 118.085 76.7766C115.884 77.2055 114.93 81.7876 115.954 87.0111C116.978 92.2346 119.593 96.1215 121.794 95.6926Z" fill="#36A9E1"/>
<path d="M184.151 87.0267C185.175 81.8032 184.221 77.221 182.021 76.7921C179.82 76.3632 177.205 80.2501 176.181 85.4736C175.157 90.6971 176.111 95.2792 178.312 95.7081C180.513 96.137 183.127 92.2502 184.151 87.0267Z" fill="#36A9E1"/>
<path d="M140.714 116.651C140.714 116.651 112.167 122.507 111.652 112.274C111.137 102.041 119.134 56.4658 121.958 51.0205C123.545 47.3331 125.858 44.0003 128.76 41.2192C130.096 39.7482 131.724 38.5689 133.54 37.7555C135.356 36.9422 137.322 36.5124 139.313 36.4931C146.594 34.9333 154.163 35.3592 161.223 37.726C167.015 39.7808 169.673 39.3082 174.558 45.0616C179.443 50.8151 189.893 104.178 191.212 111.514C192.531 118.849 168.231 117.575 161.511 115.068C155.328 112.849 154.359 115.829 154.359 115.829C154.359 115.829 179.835 81.3493 177.258 73.4794L174.62 65.6096C174.035 63.4599 172.997 61.4593 171.575 59.7409C170.154 58.0225 168.381 56.6258 166.376 55.6438C159.265 51.7192 159.801 51.1849 153.473 50.4041C147.145 49.6233 144.795 49.3356 139.045 51.5753C133.294 53.8151 130.099 56.4452 127.461 63.6986C125.423 69.1768 123.757 74.7853 122.473 80.4863C120.886 87.1233 140.714 116.651 140.714 116.651Z" fill="#36A9E1"/>
<path d="M134.015 85.7877C135.609 85.7877 136.901 83.543 136.901 80.774C136.901 78.005 135.609 75.7603 134.015 75.7603C132.422 75.7603 131.13 78.005 131.13 80.774C131.13 83.543 132.422 85.7877 134.015 85.7877Z" fill="#36A9E1"/>
<path d="M164.417 85.7877C166.011 85.7877 167.303 83.543 167.303 80.774C167.303 78.005 166.011 75.7603 164.417 75.7603C162.824 75.7603 161.532 78.005 161.532 80.774C161.532 83.543 162.824 85.7877 164.417 85.7877Z" fill="#36A9E1"/>
<path d="M149.928 109.5C157.76 109.5 164.108 104.692 164.108 98.774H135.747C135.747 104.795 142.095 109.5 149.928 109.5Z" fill="#36A9E1"/>
<path d="M199.477 170.404V159.945H187.688V178.151C191.799 175.855 195.74 173.266 199.477 170.404Z" fill="#36A9E1"/>
<path d="M111.652 181.5V159.411H99.8418V175.089C103.609 177.522 107.557 179.666 111.652 181.5V181.5Z" fill="#36A9E1"/>
<path d="M117.67 163.171H96.8735L100.996 135.801C102.397 129.945 111.776 123.986 121.937 122.877L117.629 129.267L117.67 163.171Z" fill="#36A9E1"/>
<path d="M181.38 163.171H202.301L198.055 135.801C196.653 129.945 187.275 123.986 177.114 122.877L181.38 129.267V163.171Z" fill="#36A9E1"/>
<path d="M167.303 177.719L180.742 165.082L153.844 165.041L167.303 177.719Z" fill="#B9163C"/>
<path d="M159.924 167.692C164.512 167.692 168.23 163.984 168.23 159.411C168.23 154.838 164.512 151.13 159.924 151.13C155.337 151.13 151.618 154.838 151.618 159.411C151.618 163.984 155.337 167.692 159.924 167.692Z" fill="#B9163C"/>
<path d="M174.702 167.692C179.29 167.692 183.009 163.984 183.009 159.411C183.009 154.838 179.29 151.13 174.702 151.13C170.115 151.13 166.396 154.838 166.396 159.411C166.396 163.984 170.115 167.692 174.702 167.692Z" fill="#B9163C"/>
<path d="M167.076 166.952C168.716 166.952 170.044 165.701 170.044 164.158C170.044 162.614 168.716 161.363 167.076 161.363C165.437 161.363 164.108 162.614 164.108 164.158C164.108 165.701 165.437 166.952 167.076 166.952Z" fill="#B9163C"/>
<path d="M164.561 186.986C172.658 185.172 180.448 182.196 187.687 178.151V135.329C187.69 133.645 187.36 131.977 186.716 130.42C186.072 128.864 185.127 127.449 183.935 126.256C182.743 125.064 181.326 124.117 179.767 123.47C178.207 122.823 176.536 122.489 174.847 122.486H160.975C160.975 125.979 155.905 128.836 149.659 128.836C143.414 128.836 138.344 125.979 138.344 122.486H124.472C121.065 122.497 117.801 123.856 115.397 126.264C112.993 128.671 111.646 131.932 111.652 135.329V181.521C122.725 186.47 134.721 189.033 146.856 189.041C147.969 189.041 149.062 189.041 150.154 189.041C155.001 188.717 159.817 188.03 164.561 186.986Z" fill="#36A9E1"/>
<path d="M170.044 173.24L183.462 160.603L156.564 160.562L170.044 173.24Z" fill="#B9163C"/>
<path d="M162.645 163.212C167.232 163.212 170.951 159.505 170.951 154.931C170.951 150.358 167.232 146.651 162.645 146.651C158.057 146.651 154.338 150.358 154.338 154.931C154.338 159.505 158.057 163.212 162.645 163.212Z" fill="#B9163C"/>
<path d="M177.423 163.212C182.011 163.212 185.73 159.505 185.73 154.931C185.73 150.358 182.011 146.651 177.423 146.651C172.836 146.651 169.117 150.358 169.117 154.931C169.117 159.505 172.836 163.212 177.423 163.212Z" fill="#B9163C"/>
<path d="M169.797 162.473C171.436 162.473 172.765 161.221 172.765 159.678C172.765 158.135 171.436 156.884 169.797 156.884C168.158 156.884 166.829 158.135 166.829 159.678C166.829 161.221 168.158 162.473 169.797 162.473Z" fill="#B9163C"/>
<path d="M256.942 71.0959H234.311V99.1644H256.942V71.0959Z" fill="#36A9E1"/>
<path d="M275.1 52.7466C274.278 60.9929 271.448 68.9143 266.856 75.8219C260.672 84.5959 251.006 89.8561 245.544 89.8561C240.082 89.8561 229.735 83.9794 223.51 75.1644C219.132 68.4566 216.569 60.7338 216.069 52.7466C216.069 32.1986 229.261 15.7603 245.544 15.7603C261.827 15.7603 275.1 32.2603 275.1 52.7466Z" fill="#36A9E1"/>
<path d="M217.465 64.2124C219.666 63.7836 220.62 59.2014 219.596 53.9779C218.572 48.7544 215.957 44.8676 213.757 45.2964C211.556 45.7253 210.602 50.3075 211.626 55.531C212.65 60.7545 215.265 64.6413 217.465 64.2124Z" fill="#36A9E1"/>
<path d="M279.854 55.5092C280.878 50.2857 279.924 45.7035 277.723 45.2747C275.522 44.8458 272.908 48.7326 271.884 53.9561C270.86 59.1796 271.813 63.7618 274.014 64.1906C276.215 64.6195 278.83 60.7327 279.854 55.5092Z" fill="#36A9E1"/>
<path d="M216.585 55.6233C216.585 55.6233 212.648 51.6781 212.112 41.4452C211.576 31.2123 206.465 23.5274 209.289 18.0822C212.112 12.637 217.801 9.86301 222.274 4.82877C226.746 -0.205478 234.785 5.0548 235.032 4.99315C242.411 3.24658 254.325 -1.58219 260.116 0.5137C265.908 2.60959 270.999 7.06849 275.884 12.8425C280.748 18.9519 284.019 26.1663 285.407 33.8425C286.726 41.1781 280.254 41.4658 277.904 47.5068L275.534 53.5479C275.208 49.5934 274.319 45.7052 272.895 42L270.257 34.1301C269.674 31.9794 268.637 29.9776 267.215 28.2589C265.794 26.5401 264.02 25.1441 262.013 24.1644C254.902 20.2192 255.417 19.7055 249.11 18.9041C242.803 18.1027 240.432 17.8356 234.682 20.0959C228.931 22.3562 225.737 24.9452 223.098 32.3014C221.057 37.7786 219.391 43.3873 218.11 49.089L216.585 55.6233Z" fill="#36A9E1"/>
<path d="M229.714 54.2671C231.308 54.2671 232.6 52.0224 232.6 49.2534C232.6 46.4844 231.308 44.2397 229.714 44.2397C228.121 44.2397 226.829 46.4844 226.829 49.2534C226.829 52.0224 228.121 54.2671 229.714 54.2671Z" fill="#36A9E1"/>
<path d="M260.116 54.2671C261.71 54.2671 263.002 52.0224 263.002 49.2534C263.002 46.4844 261.71 44.2397 260.116 44.2397C258.522 44.2397 257.23 46.4844 257.23 49.2534C257.23 52.0224 258.522 54.2671 260.116 54.2671Z" fill="#36A9E1"/>
<path d="M245.626 78.0822C253.459 78.0822 259.807 73.2945 259.807 67.3767H231.446C231.446 73.1918 237.794 78.0822 245.626 78.0822Z" fill="#36A9E1"/>
<path d="M295.176 138.884V128.445H283.387V146.63C287.508 144.349 291.449 141.759 295.176 138.884Z" fill="#36A9E1"/>
<path d="M207.351 150V127.911H195.541V143.568C199.303 146.016 203.252 148.167 207.351 150V150Z" fill="#36A9E1"/>
<path d="M213.37 131.651H192.49L196.736 104.281C198.138 98.4247 207.516 92.4658 217.677 91.3767L213.37 97.7466V131.651Z" fill="#36A9E1"/>
<path d="M277.121 131.651H298L293.754 104.281C292.353 98.4247 282.974 92.4658 272.813 91.3767L277.121 97.7466V131.651Z" fill="#36A9E1"/>
<path d="M263.002 146.199L276.44 133.582L249.542 133.541L263.002 146.199Z" fill="#B9163C"/>
<path d="M255.623 136.192C260.21 136.192 263.929 132.484 263.929 127.911C263.929 123.338 260.21 119.63 255.623 119.63C251.035 119.63 247.316 123.338 247.316 127.911C247.316 132.484 251.035 136.192 255.623 136.192Z" fill="#B9163C"/>
<path d="M270.401 136.192C274.989 136.192 278.708 132.484 278.708 127.911C278.708 123.338 274.989 119.63 270.401 119.63C265.814 119.63 262.095 123.338 262.095 127.911C262.095 132.484 265.814 136.192 270.401 136.192Z" fill="#B9163C"/>
<path d="M262.775 135.452C264.414 135.452 265.743 134.201 265.743 132.658C265.743 131.114 264.414 129.863 262.775 129.863C261.136 129.863 259.807 131.114 259.807 132.658C259.807 134.201 261.136 135.452 262.775 135.452Z" fill="#B9163C"/>
<path d="M260.261 155.507C268.36 153.702 276.152 150.725 283.387 146.671V103.829C283.389 102.145 283.059 100.477 282.416 98.9205C281.772 97.3638 280.827 95.9488 279.634 94.7563C278.442 93.5637 277.026 92.617 275.466 91.9702C273.907 91.3233 272.235 90.989 270.546 90.9863H256.674C256.674 94.4794 251.604 97.3151 245.359 97.3151C239.113 97.3151 234.043 94.4794 234.043 90.9863H220.171C218.483 90.989 216.812 91.3235 215.254 91.9706C213.696 92.6177 212.281 93.5647 211.09 94.7575C209.9 95.9503 208.956 97.3655 208.315 98.922C207.673 100.479 207.346 102.146 207.351 103.829V150C218.428 154.929 230.425 157.471 242.555 157.459C243.668 157.459 244.761 157.459 245.833 157.459C250.686 157.191 255.511 156.538 260.261 155.507V155.507Z" fill="#36A9E1"/>
<path d="M265.743 141.719L279.161 129.103L252.263 129.062L265.743 141.719Z" fill="#B9163C"/>
<path d="M258.344 131.712C262.931 131.712 266.65 128.005 266.65 123.431C266.65 118.858 262.931 115.151 258.344 115.151C253.756 115.151 250.037 118.858 250.037 123.431C250.037 128.005 253.756 131.712 258.344 131.712Z" fill="#B9163C"/>
<path d="M273.122 131.712C277.709 131.712 281.428 128.005 281.428 123.431C281.428 118.858 277.709 115.151 273.122 115.151C268.534 115.151 264.815 118.858 264.815 123.431C264.815 128.005 268.534 131.712 273.122 131.712Z" fill="#B9163C"/>
<path d="M265.496 130.973C267.135 130.973 268.464 129.721 268.464 128.178C268.464 126.635 267.135 125.384 265.496 125.384C263.857 125.384 262.528 126.635 262.528 128.178C262.528 129.721 263.857 130.973 265.496 130.973Z" fill="#B9163C"/>
</g>
<defs>
<clipPath id="clip0_147_496">
<rect width="298" height="189" fill="white"/>
</clipPath>
</defs>
</svg>
