<svg width="389" height="326" viewBox="0 0 389 326" fill="none" xmlns="http://www.w3.org/2000/svg">
<g clip-path="url(#clip0_115_2)">
<path d="M226.125 58.8611H207.854V81.5999H226.125V58.8611Z" fill="#DCBEA4"/>
<path d="M240.785 43.996C240.121 50.6765 237.836 57.0938 234.129 62.6897C229.137 69.7977 221.332 74.0591 216.923 74.0591C212.513 74.0591 204.16 69.2983 199.151 62.1571C195.609 56.7266 193.539 50.4682 193.144 43.996C193.144 27.3498 203.794 13.9329 216.923 13.9329C230.052 13.9329 240.785 27.3997 240.785 43.996Z" fill="#FCD7B9"/>
<path d="M193.21 47.1755C193.21 47.1755 190.015 43.996 189.599 35.7062C189.183 27.4164 190.015 20.608 193.21 16.7961C196.405 12.9841 201.53 11.2695 205.091 7.22447C208.652 3.17943 210.616 0 210.832 0C212.599 1.6354 214.7 2.86783 216.989 3.61223C221.665 5.27686 227.822 6.59191 231.866 10.8367C235.909 15.0815 239.72 19.7591 240.785 25.7184C241.85 31.6778 244.612 35.7062 242.699 40.5835L240.785 45.4942C240.523 42.285 239.806 39.1294 238.655 36.1223L236.542 29.7468C236.069 28.0054 235.231 26.3846 234.083 24.9925C232.936 23.6004 231.505 22.4689 229.885 21.6734C224.145 18.494 224.577 18.0612 219.485 17.4286C214.393 16.7961 212.463 16.563 207.837 18.3775C203.211 20.1919 200.632 22.306 198.519 28.2986C196.868 32.7364 195.517 37.2799 194.475 41.8986L193.21 47.1755Z" fill="#91723F"/>
<path d="M193.909 53.5621C195.684 53.218 196.458 49.5136 195.639 45.2881C194.82 41.0626 192.718 37.9161 190.944 38.2602C189.17 38.6043 188.395 42.3087 189.214 46.5342C190.033 50.7597 192.135 53.9062 193.909 53.5621Z" fill="#FCD7B9"/>
<path d="M244.639 46.2413C245.466 42.0097 244.696 38.2976 242.919 37.9501C241.142 37.6027 239.032 40.7515 238.205 44.9831C237.378 49.2148 238.148 52.9269 239.925 53.2743C241.702 53.6218 243.812 50.473 244.639 46.2413Z" fill="#FCD7B9"/>
<path d="M367.201 82.299L337.714 77.1054L314.551 82.299L311.855 58.7779H367.201V82.299Z" fill="#7D5810"/>
<path d="M347.482 65.8692H329.211V101.525H347.482V65.8692Z" fill="#DCBEA4"/>
<path d="M362.126 51.0207C361.458 57.6952 359.174 64.1061 355.47 69.6978C350.478 76.8058 342.657 81.0672 338.264 81.0672C333.871 81.0672 325.501 76.323 320.475 69.1651C316.955 63.7326 314.897 57.4826 314.501 51.0207C314.501 34.3745 325.151 20.9576 338.297 20.9576C351.443 20.9576 362.126 34.4078 362.126 51.0207Z" fill="#FCD7B9"/>
<path d="M319.86 79.902C319.86 79.902 302.454 89.2239 302.021 80.934C301.589 72.6442 309.077 34.8739 311.373 30.4626C313.613 26.3853 316.414 22.6423 319.693 19.3429C323.304 15.2979 336.333 13.7997 339.562 13.8996C343.505 14.0161 349.313 16.2634 353.989 17.9613C358.665 19.6592 366.086 29.2641 367.75 37.454C368.865 43.2136 376.07 73.6763 377.135 79.6356C378.2 85.595 358.698 82.2158 359.613 77.1553C360.528 72.0949 362.209 52.5023 362.209 52.5023C361.95 49.2997 361.238 46.15 360.096 43.1471L357.966 36.7715C357.494 35.0275 356.657 33.4039 355.509 32.0089C354.362 30.614 352.93 29.4796 351.31 28.6815C345.585 25.502 346.001 25.0692 340.91 24.4367C335.818 23.8041 333.904 23.5711 329.261 25.4022C324.619 27.2333 322.039 29.3307 319.909 35.2734C318.261 39.7119 316.91 44.2553 315.866 48.8734C314.501 54.1835 319.86 79.902 319.86 79.902Z" fill="#7D5810"/>
<path d="M315.053 60.7883C316.827 60.4441 317.602 56.7397 316.783 52.5142C315.964 48.2887 313.862 45.1423 312.088 45.4864C310.313 45.8305 309.539 49.5349 310.358 53.7604C311.177 57.9859 313.279 61.1324 315.053 60.7883Z" fill="#FCD7B9"/>
<path d="M365.968 53.2364C366.794 49.0047 366.024 45.2926 364.247 44.9452C362.471 44.5978 360.36 47.7465 359.533 51.9782C358.706 56.2098 359.476 59.9219 361.253 60.2694C363.03 60.6168 365.141 57.468 365.968 53.2364Z" fill="#FCD7B9"/>
<path d="M204.16 45.2279C205.446 45.2279 206.489 43.4094 206.489 41.1662C206.489 38.923 205.446 37.1045 204.16 37.1045C202.873 37.1045 201.83 38.923 201.83 41.1662C201.83 43.4094 202.873 45.2279 204.16 45.2279Z" fill="#1D1D1B"/>
<path d="M228.687 45.2279C229.974 45.2279 231.017 43.4094 231.017 41.1662C231.017 38.923 229.974 37.1045 228.687 37.1045C227.401 37.1045 226.358 38.923 226.358 41.1662C226.358 43.4094 227.401 45.2279 228.687 45.2279Z" fill="#1D1D1B"/>
<path d="M326.066 52.1527C327.353 52.1527 328.396 50.3342 328.396 48.091C328.396 45.8478 327.353 44.0293 326.066 44.0293C324.78 44.0293 323.737 45.8478 323.737 48.091C323.737 50.3342 324.78 52.1527 326.066 52.1527Z" fill="#1D1D1B"/>
<path d="M350.611 52.1527C351.897 52.1527 352.94 50.3342 352.94 48.091C352.94 45.8478 351.897 44.0293 350.611 44.0293C349.324 44.0293 348.281 45.8478 348.281 48.091C348.281 50.3342 349.324 52.1527 350.611 52.1527Z" fill="#1D1D1B"/>
<path d="M216.989 64.4376C223.313 64.4376 228.454 60.559 228.454 55.7649H205.541C205.541 60.559 210.666 64.4376 216.989 64.4376Z" fill="white"/>
<path d="M338.347 70.1306C344.67 70.1306 349.795 66.2354 349.795 61.4413H326.882C326.882 66.2354 332.023 70.1306 338.347 70.1306Z" fill="white"/>
<path d="M80.6055 62.5566H62.3345V85.2953H80.6055V62.5566Z" fill="#DCBEA4"/>
<path d="M95.2488 47.6915C94.5799 54.3708 92.2954 60.7868 88.5927 66.3852C83.6006 73.4932 75.7797 77.7546 71.3867 77.7546C66.9936 77.7546 58.6069 72.9938 53.5982 65.8525C50.0637 60.4184 47.9943 54.1621 47.5911 47.6915C47.5911 31.0452 58.2408 17.6284 71.3867 17.6284C84.5325 17.6284 95.2488 31.0952 95.2488 47.6915Z" fill="#FCD7B9"/>
<path d="M48.5581 56.9796C50.3323 56.6355 51.1068 52.9311 50.2878 48.7056C49.4689 44.4801 47.3667 41.3336 45.5925 41.6777C43.8182 42.0218 43.0438 45.7262 43.8627 49.9517C44.6816 54.1772 46.7838 57.3237 48.5581 56.9796Z" fill="#FCD7B9"/>
<path d="M99.1074 49.9229C99.9343 45.6913 99.1642 41.9792 97.3873 41.6317C95.6105 41.2843 93.4998 44.4331 92.6729 48.6647C91.8461 52.8964 92.6162 56.6085 94.393 56.9559C96.1699 57.3033 98.2806 54.1546 99.1074 49.9229Z" fill="#FCD7B9"/>
<path d="M48.0239 49.9387C48.0239 49.9387 44.829 46.7593 44.4129 38.4695C43.9969 30.1796 41.6007 19.4428 43.9137 14.9816C46.2267 10.5204 44.4129 13.0673 48.0239 9.0389C51.6348 5.01051 65.4296 2.82986 65.646 2.82986C65.8623 2.82986 76.2791 2.26388 80.9384 3.97845C85.5977 5.69301 92.3037 5.99264 96.2474 10.6369C100.191 15.2812 98.0113 22.2893 99.0763 28.2653C100.096 33.3513 99.5509 38.6272 97.5121 43.3967L95.5985 48.2741C95.3376 45.0718 94.6261 41.9223 93.4852 38.9189L91.3552 32.5933C90.8847 30.851 90.0474 29.2293 88.8995 27.8369C87.7515 26.4445 86.3194 25.3136 84.6991 24.5199C78.9582 21.3238 79.3908 20.9077 74.2989 20.2585C69.207 19.6093 67.2767 19.3929 62.6507 21.224C58.0247 23.055 55.4122 25.1525 53.2989 31.0952C51.6507 35.5337 50.2998 40.0771 49.2553 44.6952L48.0239 49.9387Z" fill="#4D3C1D"/>
<path d="M58.6236 48.9233C59.9102 48.9233 60.9532 47.1048 60.9532 44.8616C60.9532 42.6184 59.9102 40.7999 58.6236 40.7999C57.337 40.7999 56.2939 42.6184 56.2939 44.8616C56.2939 47.1048 57.337 48.9233 58.6236 48.9233Z" fill="#1D1D1B"/>
<path d="M83.1514 48.9233C84.438 48.9233 85.4811 47.1048 85.4811 44.8616C85.4811 42.6184 84.438 40.7999 83.1514 40.7999C81.8648 40.7999 80.8218 42.6184 80.8218 44.8616C80.8218 47.1048 81.8648 48.9233 83.1514 48.9233Z" fill="#1D1D1B"/>
<path d="M71.5532 68.1331C77.8765 68.1331 83.0018 64.2545 83.0018 59.4604H60.0049C60.0049 64.2545 65.1301 68.1331 71.5532 68.1331Z" fill="white"/>
<path d="M111.24 183.192H120.525L113.154 154.81C112.047 150.503 111.488 146.073 111.49 141.626V109.449H101.938V141.493C101.937 146.045 102.53 150.578 103.702 154.977L111.24 183.192Z" fill="#FCD7B9"/>
<path d="M31.267 183.192H21.9651L29.3534 154.81C30.4677 150.504 31.027 146.074 31.0174 141.626V109.449H40.5357V141.493C40.5424 146.044 39.955 150.577 38.7884 154.977L31.267 183.192Z" fill="#FCD7B9"/>
<path d="M101.938 176.7H40.5522V204.982H101.938V176.7Z" fill="#4A4A49"/>
<path d="M67.9422 310.935H40.5522V199.871H71.2536L67.9422 310.935Z" fill="#4A4A49"/>
<path d="M101.938 310.935H74.5651L71.2537 199.871H101.938V310.935Z" fill="#4A4A49"/>
<path d="M68.3916 307.573H40.0864V310.935H68.3916V307.573Z" fill="#4A4A49"/>
<path d="M102.471 307.573H74.1658V310.935H102.471V307.573Z" fill="#4A4A49"/>
<path d="M80.3891 78.6535C80.3891 81.5 76.2956 83.7972 71.2536 83.7972C66.2116 83.7972 62.1181 81.5666 62.1181 78.6535H50.9192C49.5556 78.6557 48.2058 78.9265 46.9468 79.4505C45.6879 79.9746 44.5444 80.7415 43.5818 81.7076C42.6191 82.6737 41.8561 83.82 41.3363 85.0811C40.8165 86.3422 40.5501 87.6933 40.5523 89.0574V177.066C42.4064 178.446 44.5077 179.457 46.7424 180.046C52.7163 182.21 63.9984 181.527 70.2552 181.71C76.3289 181.511 82.9517 182.193 89.092 180.961C93.5037 180.121 97.811 178.804 101.938 177.033V89.0574C101.94 87.6891 101.672 86.3339 101.149 85.0695C100.627 83.8052 99.8591 82.6567 98.8912 81.6899C97.9232 80.7232 96.7739 79.9573 95.5091 79.4362C94.2444 78.9151 92.8892 78.6491 91.5215 78.6535H80.3891Z" fill="#009BDB"/>
<path d="M45.4113 111.613H28.5713L31.8993 89.4403C33.0309 84.6961 40.6189 79.8687 48.8059 78.9864L45.3281 84.1468L45.4113 111.613Z" fill="#009BDB"/>
<path d="M96.8964 111.613H113.736L110.408 89.4403C109.277 84.6961 101.689 79.8687 93.4851 78.9864L96.9796 84.1468L96.8964 111.613Z" fill="#009BDB"/>
<path d="M32.7314 261.679L15.1759 260.68C9.98408 260.68 -0.549218 253.789 -8.8222e-05 248.578L12.0308 197.641C12.5467 192.997 16.3407 179.014 21.0166 179.014H29.0871C33.6799 179.014 37.1577 195.294 37.5238 199.871L48.8558 248.845C49.2884 253.972 37.8732 261.679 32.7314 261.679Z" fill="#CACACA"/>
<path d="M18.0212 183.492H27.839C27.839 183.492 27.5561 192.114 26.4412 194.345C25.3263 196.575 24.3279 197.374 23.2629 197.674C22.8257 197.866 22.34 197.918 21.8722 197.822C21.4045 197.727 20.9777 197.489 20.6504 197.141C19.7513 195.976 19.1 194.639 18.7368 193.213C18.7368 192.198 18.5371 191.349 18.4705 189.484C18.404 187.62 18.0212 183.492 18.0212 183.492Z" fill="#979696"/>
<path d="M21.0999 185.589C21.0999 185.589 21.0999 186.621 21.2496 188.435C21.3489 189.997 21.7206 191.53 22.3479 192.963C22.6228 193.223 22.9524 193.417 23.3124 193.532C23.6723 193.648 24.0535 193.681 24.4279 193.629C25.2258 193.421 25.944 192.981 26.4913 192.364C26.8927 191.489 27.1995 190.574 27.4065 189.634L27.6395 187.054L27.8059 184.424V183.492L21.0999 185.589Z" fill="white"/>
<path d="M109.343 261.679L126.915 260.68C132.157 260.68 142.64 253.789 142.058 248.578L130.027 197.641C129.511 192.997 125.717 179.014 121.041 179.014H112.971C108.395 179.014 104.9 195.294 104.534 199.871L93.1855 248.845C92.7861 253.972 104.201 261.679 109.343 261.679Z" fill="#CACACA"/>
<path d="M124.053 183.492H114.236C114.236 183.492 114.518 192.114 115.633 194.345C116.748 196.575 117.763 197.374 118.812 197.674C119.249 197.866 119.735 197.918 120.202 197.822C120.67 197.727 121.097 197.489 121.424 197.141C122.323 195.976 122.975 194.639 123.338 193.213C123.338 192.198 123.538 191.349 123.604 189.484C123.671 187.62 124.053 183.492 124.053 183.492Z" fill="#979696"/>
<path d="M120.975 185.589C120.975 185.589 120.975 186.621 120.825 188.435C120.726 189.997 120.354 191.53 119.727 192.963C119.452 193.223 119.122 193.417 118.762 193.532C118.402 193.648 118.021 193.681 117.647 193.629C116.849 193.421 116.131 192.981 115.583 192.364C115.182 191.489 114.875 190.574 114.668 189.634L114.435 187.054L114.269 184.424V183.492L120.975 185.589Z" fill="white"/>
<path d="M118.479 185.822C121.585 185.822 124.103 183.78 124.103 181.261C124.103 178.742 121.585 176.7 118.479 176.7C115.372 176.7 112.854 178.742 112.854 181.261C112.854 183.78 115.372 185.822 118.479 185.822Z" fill="#FCD7B9"/>
<path d="M22.9303 185.822C26.0366 185.822 28.5547 183.78 28.5547 181.261C28.5547 178.742 26.0366 176.7 22.9303 176.7C19.824 176.7 17.3059 178.742 17.3059 181.261C17.3059 183.78 19.824 185.822 22.9303 185.822Z" fill="#FCD7B9"/>
<path d="M50.5698 303.544C45.8475 303.544 41.3187 305.421 37.9796 308.761C34.6405 312.101 32.7646 316.632 32.7646 321.356H68.3749C68.3749 316.632 66.499 312.101 63.1599 308.761C59.8208 305.421 55.292 303.544 50.5698 303.544Z" fill="#36342D"/>
<path d="M91.9374 303.544C87.2152 303.544 82.6864 305.421 79.3473 308.761C76.0082 312.101 74.1323 316.632 74.1323 321.356H109.826C109.826 319.01 109.362 316.687 108.462 314.52C107.563 312.354 106.244 310.387 104.581 308.732C102.919 307.077 100.947 305.766 98.7767 304.876C96.6069 303.986 94.2826 303.533 91.9374 303.544V303.544Z" fill="#36342D"/>
<path d="M32.7646 321.272H68.3749C68.3749 322.504 67.8857 323.685 67.0151 324.556C66.1444 325.427 64.9635 325.917 63.7322 325.917H37.3906C36.1622 325.912 34.9856 325.421 34.1186 324.551C33.2515 323.68 32.7646 322.501 32.7646 321.272V321.272Z" fill="#E3E3E3"/>
<path d="M74.1323 321.272H109.743C109.743 322.504 109.253 323.685 108.383 324.556C107.512 325.427 106.331 325.917 105.1 325.917H78.775C77.5437 325.917 76.3628 325.427 75.4921 324.556C74.6215 323.685 74.1323 322.504 74.1323 321.272V321.272Z" fill="#E3E3E3"/>
<path d="M41.2012 307.373L49.1552 306.058C49.9812 305.916 50.8253 305.916 51.6513 306.058L61.9683 307.872L52.5665 305.076C51.141 304.635 49.6156 304.635 48.1901 305.076L41.2012 307.373Z" fill="#E3E3E3"/>
<path d="M41.2012 309.42L49.1552 308.089C49.9812 307.947 50.8253 307.947 51.6513 308.089L61.9683 309.903L52.5665 307.09C51.1423 306.64 49.6143 306.64 48.1901 307.09L41.2012 309.42Z" fill="#E3E3E3"/>
<path d="M82.802 307.373L90.7727 306.058C91.5931 305.916 92.4317 305.916 93.2521 306.058L103.586 307.955L94.184 305.159C92.7529 304.717 91.222 304.717 89.7909 305.159L82.802 307.373Z" fill="#E3E3E3"/>
<path d="M82.802 309.42L90.7727 308.089C91.5931 307.947 92.4317 307.947 93.2521 308.089L103.586 309.903L94.184 307.09C92.7541 306.64 91.2207 306.64 89.7909 307.09L82.802 309.42Z" fill="#E3E3E3"/>
<path d="M247.94 178.664H257.924L257.608 149.666C257.425 141.793 257.608 141.543 257.608 137.065V104.871H247.94V136.915C247.94 141.493 246.775 146.087 247.94 150.449V178.664Z" fill="#FCD7B9"/>
<path d="M167.534 154.377L168.683 143.008L171.661 145.238C173.658 146.454 176.038 147.852 176.404 145.555C176.865 142.749 177.094 139.909 177.086 137.065V104.871H186.621V136.915C186.373 142.198 185.817 147.461 184.957 152.679C184.835 153.458 184.55 154.202 184.121 154.863C183.692 155.524 183.129 156.087 182.468 156.516C181.807 156.945 181.063 157.229 180.285 157.351C179.507 157.473 178.712 157.43 177.951 157.224L167.534 154.377Z" fill="#FCD7B9"/>
<path d="M248.007 172.172H186.621V200.454H248.007V172.172Z" fill="#1B3257"/>
<path d="M213.994 306.407H186.621V195.344H217.305L213.994 306.407Z" fill="#1B3257"/>
<path d="M248.007 306.407H220.617L217.305 195.344H248.007V306.407Z" fill="#1B3257"/>
<path d="M214.46 303.045H186.155V306.407H214.46V303.045Z" fill="#1B3257"/>
<path d="M248.523 303.045H220.218V306.407H248.523V303.045Z" fill="#1B3257"/>
<path d="M226.441 74.1257C226.441 76.9722 222.364 79.2694 217.305 79.2694C212.247 79.2694 208.17 76.9722 208.17 74.1257H196.988C195.624 74.1279 194.274 74.3987 193.015 74.9228C191.756 75.4468 190.613 76.2137 189.65 77.1798C188.687 78.1459 187.924 79.2922 187.405 80.5533C186.885 81.8144 186.618 83.1655 186.621 84.5296V172.538C188.473 173.921 190.575 174.933 192.811 175.518C198.768 177.682 210.067 176.999 216.324 177.183C222.397 176.983 229.02 177.665 235.16 176.434C239.571 175.591 243.879 174.274 248.007 172.505V84.5296C248.009 83.1655 247.742 81.8144 247.223 80.5533C246.703 79.2922 245.94 78.1459 244.977 77.1798C244.014 76.2137 242.871 75.4468 241.612 74.9228C240.353 74.3987 239.003 74.1279 237.64 74.1257H226.441Z" fill="#F2AD45"/>
<path d="M191.48 107.085H174.623L178.051 84.8958C179.182 80.1517 186.754 75.3243 194.957 74.442L191.48 79.6023V107.085Z" fill="#F2AD45"/>
<path d="M242.948 107.085H259.805L256.377 84.8958C255.245 80.1517 247.674 75.3243 239.47 74.442L242.948 79.6023V107.085Z" fill="#F2AD45"/>
<path d="M196.622 299.016C191.899 299.016 187.371 300.893 184.031 304.233C180.692 307.574 178.816 312.104 178.816 316.828H214.427C214.427 312.104 212.551 307.574 209.212 304.233C205.873 300.893 201.344 299.016 196.622 299.016V299.016Z" fill="#36342D"/>
<path d="M237.956 299.016C233.234 299.016 228.705 300.893 225.366 304.233C222.027 307.574 220.151 312.104 220.151 316.828H255.761C255.761 312.104 253.885 307.574 250.546 304.233C247.207 300.893 242.678 299.016 237.956 299.016V299.016Z" fill="#36342D"/>
<path d="M178.816 316.828H214.427C214.427 318.06 213.937 319.241 213.067 320.112C212.196 320.983 211.015 321.472 209.784 321.472H183.459C182.228 321.472 181.047 320.983 180.176 320.112C179.306 319.241 178.816 318.06 178.816 316.828Z" fill="#E3E3E3"/>
<path d="M220.201 316.828H255.811C255.811 318.06 255.322 319.241 254.451 320.112C253.58 320.983 252.4 321.472 251.168 321.472H224.827C223.595 321.472 222.415 320.983 221.544 320.112C220.673 319.241 220.184 318.06 220.184 316.828H220.201Z" fill="#E3E3E3"/>
<path d="M187.253 302.845L195.224 301.53C196.044 301.389 196.883 301.389 197.703 301.53L208.037 303.344L198.635 300.531C197.202 300.099 195.674 300.099 194.242 300.531L187.253 302.845Z" fill="#E3E3E3"/>
<path d="M187.253 304.893L195.224 303.561C196.044 303.42 196.883 303.42 197.703 303.561L208.037 305.375L198.635 302.562C197.205 302.112 195.672 302.112 194.242 302.562L187.253 304.893Z" fill="#E3E3E3"/>
<path d="M228.87 302.845L236.841 301.53C237.662 301.389 238.5 301.389 239.32 301.53L249.654 303.344L240.236 300.531C238.809 300.098 237.286 300.098 235.859 300.531L228.87 302.845Z" fill="#E3E3E3"/>
<path d="M228.87 304.893L236.841 303.561C237.662 303.42 238.5 303.42 239.32 303.561L249.654 305.375L240.236 302.562C238.811 302.113 237.283 302.113 235.859 302.562L228.87 304.893Z" fill="#E3E3E3"/>
<path d="M85.4977 123.399L96.3306 113.178L74.615 113.145L85.4977 123.399Z" fill="#B9163C"/>
<path d="M79.5239 115.275C83.2276 115.275 86.2299 112.272 86.2299 108.567C86.2299 104.862 83.2276 101.858 79.5239 101.858C75.8203 101.858 72.8179 104.862 72.8179 108.567C72.8179 112.272 75.8203 115.275 79.5239 115.275Z" fill="#B9163C"/>
<path d="M91.4551 115.275C95.1587 115.275 98.1611 112.272 98.1611 108.567C98.1611 104.862 95.1587 101.858 91.4551 101.858C87.7514 101.858 84.749 104.862 84.749 108.567C84.749 112.272 87.7514 115.275 91.4551 115.275Z" fill="#B9163C"/>
<path d="M85.2981 114.676C86.6214 114.676 87.6943 113.662 87.6943 112.412C87.6943 111.162 86.6214 110.148 85.2981 110.148C83.9747 110.148 82.9019 111.162 82.9019 112.412C82.9019 113.662 83.9747 114.676 85.2981 114.676Z" fill="#B9163C"/>
<path d="M231.034 120.752L241.866 110.531L220.151 110.498L231.034 120.752Z" fill="#B9163C"/>
<path d="M225.06 112.645C228.763 112.645 231.766 109.642 231.766 105.937C231.766 102.232 228.763 99.2282 225.06 99.2282C221.356 99.2282 218.354 102.232 218.354 105.937C218.354 109.642 221.356 112.645 225.06 112.645Z" fill="#B9163C"/>
<path d="M236.991 112.645C240.695 112.645 243.697 109.642 243.697 105.937C243.697 102.232 240.695 99.2282 236.991 99.2282C233.287 99.2282 230.285 102.232 230.285 105.937C230.285 109.642 233.287 112.645 236.991 112.645Z" fill="#B9163C"/>
<path d="M230.834 112.046C232.157 112.046 233.23 111.032 233.23 109.782C233.23 108.532 232.157 107.518 230.834 107.518C229.511 107.518 228.438 108.532 228.438 109.782C228.438 111.032 229.511 112.046 230.834 112.046Z" fill="#B9163C"/>
<path d="M330.809 224.957H312.97V306.84H330.809V224.957Z" fill="#FCD7B9"/>
<path d="M368.15 227.021H350.311V306.357H368.15V227.021Z" fill="#FCD7B9"/>
<path d="M382.726 235.561C376.603 235.561 370.629 233.896 364.505 233.896C356.568 233.896 348.497 235.561 340.56 235.561C331.94 235.561 324.818 233.58 316.199 233.58C310.757 233.58 303.835 235.561 298.377 235.561C297.461 235.623 296.544 235.468 295.7 235.107C294.857 234.747 294.11 234.191 293.523 233.486C292.935 232.781 292.522 231.947 292.319 231.052C292.116 230.157 292.127 229.226 292.353 228.337L308.211 178.231H368.965L388.634 228.054C390.081 231.682 387.07 235.561 382.726 235.561Z" fill="#132541"/>
<path d="M347.566 83.5641C347.566 86.3108 343.489 100.826 338.43 100.826C333.371 100.826 329.311 86.3108 329.311 83.5641H318.112C315.401 83.5286 312.786 84.5709 310.843 86.4623C308.899 88.3537 307.785 90.9395 307.745 93.6518L313.237 143.441C313.657 147.212 313.483 151.026 312.721 154.743L307.729 178.997C309.585 180.354 311.688 181.338 313.919 181.893C319.893 184.008 331.175 183.342 337.432 183.558C343.505 183.375 350.128 184.024 356.268 182.826C360.676 182.026 364.984 180.748 369.115 179.014L364.655 154.81C364.04 151.468 363.889 148.056 364.206 144.673L369.198 93.5852C369.159 90.8729 368.045 88.2871 366.101 86.3957C364.157 84.5043 361.542 83.462 358.831 83.4976L347.566 83.5641Z" fill="#EEA4AD"/>
<path d="M312.604 116.524H295.748L299.176 94.3509C300.307 89.6067 307.879 84.7793 316.082 83.8804L312.604 89.0574V116.524Z" fill="#EEA4AD"/>
<path d="M364.073 116.524H380.929L377.502 94.3509C376.37 89.6067 368.799 84.7793 360.595 83.8804L364.073 89.0574V116.524Z" fill="#EEA4AD"/>
<path d="M352.158 130.19L362.991 119.953L341.276 119.92L352.158 130.19Z" fill="#B9163C"/>
<path d="M346.185 122.067C349.888 122.067 352.891 119.063 352.891 115.358C352.891 111.654 349.888 108.65 346.185 108.65C342.481 108.65 339.479 111.654 339.479 115.358C339.479 119.063 342.481 122.067 346.185 122.067Z" fill="#B9163C"/>
<path d="M358.115 122.067C361.819 122.067 364.822 119.063 364.822 115.358C364.822 111.654 361.819 108.65 358.115 108.65C354.412 108.65 351.409 111.654 351.409 115.358C351.409 119.063 354.412 122.067 358.115 122.067Z" fill="#B9163C"/>
<path d="M351.959 121.468C353.282 121.468 354.355 120.454 354.355 119.204C354.355 117.953 353.282 116.94 351.959 116.94C350.635 116.94 349.562 117.953 349.562 119.204C349.562 120.454 350.635 121.468 351.959 121.468Z" fill="#B9163C"/>
<path d="M320.991 301.081C316.85 301.081 312.878 302.725 309.948 305.653C307.018 308.581 305.37 312.552 305.366 316.695H336.6C336.6 312.554 334.955 308.582 332.028 305.654C329.101 302.726 325.131 301.081 320.991 301.081Z" fill="#B91818"/>
<path d="M305.366 316.695H336.6C336.6 317.776 336.17 318.814 335.405 319.579C334.641 320.343 333.604 320.773 332.523 320.773H309.509C308.428 320.773 307.391 320.343 306.626 319.579C305.862 318.814 305.432 317.776 305.432 316.695V316.695H305.366Z" fill="#E3E3E3"/>
<path d="M312.987 304.443L319.976 303.278C320.697 303.153 321.435 303.153 322.156 303.278L331.208 304.943L322.888 302.462C321.635 302.084 320.298 302.084 319.044 302.462L312.987 304.443Z" fill="#E3E3E3"/>
<path d="M312.987 306.291L319.976 305.142C320.698 305.026 321.434 305.026 322.156 305.142L331.208 306.807L322.888 304.343C321.637 303.952 320.296 303.952 319.044 304.343L312.987 306.291Z" fill="#E3E3E3"/>
<path d="M359.23 301.081C357.179 301.078 355.148 301.481 353.252 302.264C351.357 303.048 349.634 304.198 348.183 305.648C346.732 307.098 345.58 308.82 344.795 310.716C344.01 312.611 343.605 314.643 343.605 316.695H374.839C374.839 312.554 373.195 308.582 370.267 305.654C367.34 302.726 363.37 301.081 359.23 301.081Z" fill="#B91818"/>
<path d="M343.605 316.695H374.839C374.839 317.776 374.409 318.814 373.645 319.579C372.88 320.343 371.843 320.773 370.762 320.773H347.682C346.601 320.773 345.564 320.343 344.799 319.579C344.035 318.814 343.605 317.776 343.605 316.695Z" fill="#E3E3E3"/>
<path d="M351.227 304.443L358.199 303.278C358.92 303.153 359.657 303.153 360.379 303.278L369.448 304.943L361.128 302.462C359.874 302.084 358.537 302.084 357.284 302.462L351.227 304.443Z" fill="#E3E3E3"/>
<path d="M351.227 306.291L358.199 305.142C358.921 305.026 359.657 305.026 360.379 305.142L369.448 306.807L361.128 304.343C359.876 303.952 358.535 303.952 357.284 304.343L351.227 306.291Z" fill="#E3E3E3"/>
<path d="M305.066 164.998L332.057 156.342L333.987 145.521L311.123 153.845C310.787 153.975 310.426 154.031 310.066 154.008C309.706 153.985 309.355 153.884 309.038 153.711C308.721 153.538 308.446 153.298 308.231 153.008C308.016 152.718 307.868 152.384 307.795 152.03C307.662 150.74 307.679 149.438 307.845 148.152V116.524H298.543V147.985C298.526 152.532 299.085 157.063 300.207 161.469C300.607 163.133 303.519 165.647 305.066 164.998Z" fill="#FCD7B9"/>
<path d="M371.827 164.998L344.154 156.342L342.174 145.521L365.604 153.845C365.941 153.964 366.299 154.011 366.655 153.983C367.012 153.955 367.358 153.851 367.672 153.68C367.986 153.509 368.261 153.274 368.478 152.989C368.695 152.705 368.849 152.378 368.932 152.03C369.13 150.725 369.169 149.4 369.048 148.085V116.524H378.566V147.985C378.6 152.533 378.041 157.066 376.902 161.469V161.469C376.386 163.133 373.408 165.647 371.827 164.998Z" fill="#FCD7B9"/>
<path d="M351.276 229.718L328.562 228.686C321.79 228.686 308.245 221.578 308.993 216.201L324.486 163.633C325.168 158.838 330.043 144.439 336.134 144.439H346.567C352.491 144.439 357.001 161.236 357.483 165.946L372.127 216.451C372.742 221.745 357.916 229.718 351.276 229.718Z" fill="#CACACA"/>
<path d="M345.469 151.631H335.651C335.651 151.631 335.934 160.253 337.049 162.484C338.164 164.715 339.162 165.514 340.227 165.813C340.666 165.998 341.15 166.046 341.616 165.951C342.082 165.856 342.508 165.622 342.84 165.281C343.744 164.114 344.39 162.77 344.737 161.335C344.737 160.337 344.953 159.488 345.003 157.623C345.053 155.759 345.469 151.631 345.469 151.631Z" fill="#979696"/>
<path d="M344.188 151.631C344.188 151.631 343.955 154.76 343.772 156.624C343.671 158.192 343.3 159.729 342.673 161.169C342.397 161.426 342.067 161.619 341.708 161.735C341.348 161.85 340.968 161.884 340.593 161.835C339.798 161.621 339.082 161.181 338.53 160.57C338.138 159.685 337.831 158.766 337.615 157.823L337.382 155.243L337.232 152.629V151.697L344.188 151.631Z" fill="#D7959D"/>
<path d="M344.071 154.76C347.876 154.76 350.96 152.256 350.96 149.167C350.96 146.078 347.876 143.574 344.071 143.574C340.266 143.574 337.182 146.078 337.182 149.167C337.182 152.256 340.266 154.76 344.071 154.76Z" fill="#FCD7B9"/>
<path d="M337.182 155.259C340.987 155.259 344.071 152.755 344.071 149.666C344.071 146.577 340.987 144.073 337.182 144.073C333.377 144.073 330.293 146.577 330.293 149.666C330.293 152.755 333.377 155.259 337.182 155.259Z" fill="#FCD7B9"/>
<path d="M162.742 98.5291H169.548V320.307C169.548 321.19 169.197 322.037 168.573 322.661C167.949 323.285 167.102 323.636 166.22 323.636C165.337 323.636 164.491 323.285 163.866 322.661C163.242 322.037 162.892 321.19 162.892 320.307V98.5291H162.742Z" fill="#9C551C"/>
<path d="M163.374 155.01C166.186 155.01 168.466 151.924 168.466 148.118C168.466 144.312 166.186 141.227 163.374 141.227C160.562 141.227 158.282 144.312 158.282 148.118C158.282 151.924 160.562 155.01 163.374 155.01Z" fill="#FCD7B9"/>
<path d="M150.894 79.2861H181.379V85.6449C181.379 89.0709 180.019 92.3565 177.597 94.779C175.175 97.2015 171.891 98.5624 168.466 98.5624H163.807C160.382 98.5624 157.098 97.2015 154.676 94.779C152.254 92.3565 150.894 89.0709 150.894 85.6449V79.2861V79.2861Z" fill="#1D5D2A"/>
<path d="M152.175 57.7292C152.515 57.7292 152.841 57.8642 153.081 58.1046C153.322 58.345 153.457 58.671 153.457 59.0109V79.286H150.894V58.9943C150.898 58.6572 151.035 58.3355 151.275 58.0987C151.515 57.8619 151.838 57.7291 152.175 57.7292V57.7292Z" fill="#1D5D2A"/>
<path d="M158.083 57.7292C158.422 57.7292 158.748 57.8642 158.989 58.1046C159.229 58.345 159.364 58.671 159.364 59.0109V79.286H156.818V58.9943C156.822 58.6601 156.957 58.3408 157.193 58.1045C157.429 57.8681 157.748 57.7335 158.083 57.7292Z" fill="#1D5D2A"/>
<path d="M164.007 57.7292C164.346 57.7292 164.672 57.8642 164.913 58.1046C165.153 58.345 165.288 58.671 165.288 59.0109V79.286H162.742V58.9943C162.746 58.6601 162.881 58.3408 163.117 58.1045C163.353 57.8681 163.673 57.7335 164.007 57.7292Z" fill="#1D5D2A"/>
<path d="M169.531 57.7292C169.871 57.7292 170.197 57.8642 170.437 58.1046C170.678 58.345 170.813 58.671 170.813 59.0109V79.286H168.267V58.9943C168.271 58.6601 168.406 58.3408 168.642 58.1045C168.878 57.8681 169.197 57.7335 169.531 57.7292Z" fill="#1D5D2A"/>
<path d="M174.623 57.7292C174.963 57.7292 175.289 57.8642 175.529 58.1046C175.769 58.345 175.904 58.671 175.904 59.0109V79.286H173.358V58.9943C173.363 58.6601 173.497 58.3408 173.734 58.1045C173.97 57.8681 174.289 57.7335 174.623 57.7292V57.7292Z" fill="#1D5D2A"/>
<path d="M180.098 57.7292C180.437 57.7292 180.763 57.8642 181.004 58.1046C181.244 58.345 181.379 58.671 181.379 59.0109V79.286H178.833V58.9943C178.837 58.6601 178.972 58.3408 179.208 58.1045C179.444 57.8681 179.764 57.7335 180.098 57.7292Z" fill="#1D5D2A"/>
<path d="M252.949 188.402C255.678 188.402 257.891 184.631 257.891 179.979C257.891 175.327 255.678 171.556 252.949 171.556C250.22 171.556 248.007 175.327 248.007 179.979C248.007 184.631 250.22 188.402 252.949 188.402Z" fill="#FCD7B9"/>
</g>
<defs>
<clipPath id="clip0_115_2">
<rect width="389" height="326" fill="white"/>
</clipPath>
</defs>
</svg>
